<svg width="663" height="636" viewBox="0 0 663 636" fill="none" xmlns="http://www.w3.org/2000/svg">
<g clip-path="url(#clip0)">
<path d="M663 634.434C663 634.649 514.909 634.834 332.274 634.834C149.64 634.834 1.5332 634.649 1.5332 634.434C1.5332 634.22 149.594 634.02 332.29 634.02C514.985 634.02 663 634.204 663 634.434Z" fill="#263238"/>
<path d="M180.61 106.752C156.079 145.508 157.613 199.214 184.505 236.42C202.428 261.209 229.305 277.862 250.647 299.735C271.989 321.607 288.21 353.932 276.941 382.389C265.473 411.352 231.881 423.14 206.736 441.482C179.006 461.725 160.186 491.935 154.229 525.772C148.271 559.608 155.639 594.439 174.784 622.953H436.01C436.01 622.953 481.914 535.372 422.901 468.635C363.889 401.897 332.198 400.808 334.375 357.048C336.552 313.288 367.154 299.059 384.648 282.651C402.142 266.243 487.372 227.948 437.099 106.752H180.61Z" fill="#FAFAFA"/>
<path d="M180.61 106.752H185.103H198.349L249.344 106.675L437.099 106.537H437.298V106.706C441.127 115.94 444.378 125.403 447.034 135.04C449.858 145.072 451.716 155.352 452.584 165.738C453.488 176.595 452.931 187.524 450.928 198.232C448.728 209.332 444.741 220 439.123 229.82C436.208 234.826 432.917 239.603 429.279 244.11C425.559 248.671 421.538 252.978 417.244 257.003C412.887 261.088 408.328 264.951 403.583 268.576C398.83 272.26 393.863 275.744 389.018 279.413C386.595 281.255 384.418 283.311 382.057 285.368C379.696 287.425 377.35 289.328 374.928 291.262C370.098 295.13 365.223 298.937 360.623 303.234C351.024 311.559 343.647 322.146 339.158 334.04C336.998 340.116 335.627 346.446 335.08 352.873C334.942 354.5 334.727 356.112 334.666 357.739C334.605 359.366 334.543 360.992 334.666 362.619C334.702 365.886 335.03 369.143 335.647 372.351C336.896 378.833 339.579 384.953 343.497 390.263C347.502 395.605 352.038 400.527 357.035 404.952C366.97 414.039 377.488 422.711 387.561 432.058C397.634 441.406 407.493 451.198 416.999 461.513C421.841 466.633 426.377 472.035 430.583 477.691C434.805 483.432 438.481 489.558 441.56 495.987C447.765 509.013 451.577 523.051 452.814 537.429C454.065 552.011 453.208 566.698 450.269 581.035C448.831 588.292 446.946 595.453 444.627 602.478C442.364 609.561 439.602 616.476 436.363 623.168L436.256 623.383H174.508L174.401 623.214C162.15 604.744 154.636 583.536 152.522 561.465C150.398 540.26 153.504 518.857 161.568 499.133C169.232 480.281 181.032 463.395 196.096 449.725C203.405 443.265 211.3 437.5 219.676 432.503C227.833 427.423 236.066 422.741 243.839 417.615C251.624 412.745 258.773 406.924 265.12 400.286C271.189 393.778 275.689 385.965 278.275 377.447C280.544 369.137 280.901 360.42 279.318 351.952C277.807 343.765 275.084 335.85 271.238 328.468C267.554 321.379 263.145 314.692 258.083 308.514C253.211 302.593 247.918 297.033 242.245 291.876C231.191 281.684 219.86 272.767 209.68 263.603C204.574 258.999 199.745 254.394 195.283 249.682C190.955 245.072 186.969 240.152 183.355 234.962C176.812 225.451 171.77 214.988 168.406 203.942C165.455 194.409 163.745 184.535 163.316 174.564C163.101 172.277 163.193 169.959 163.193 167.856C163.193 165.754 163.193 163.528 163.393 161.456C163.592 159.384 163.699 157.358 163.853 155.316C164.006 153.275 164.42 151.448 164.68 149.606C166.326 138.307 169.736 127.337 174.784 117.097C175.478 115.516 176.266 113.979 177.145 112.493L179.031 109.3C180.028 107.581 180.564 106.721 180.564 106.721L179.031 109.346L177.207 112.554C176.341 114.042 175.563 115.58 174.876 117.159C169.835 127.419 166.421 138.402 164.757 149.714C164.496 151.571 164.19 153.459 163.96 155.424C163.73 157.388 163.653 159.414 163.5 161.563C163.347 163.712 163.347 165.769 163.331 167.948C163.316 170.128 163.331 172.354 163.469 174.641C163.938 184.554 165.68 194.366 168.651 203.834C172.016 214.835 177.053 225.251 183.585 234.716C187.189 239.89 191.171 244.79 195.498 249.375C199.944 254.102 204.697 258.692 209.879 263.189C220.06 272.398 231.344 281.224 242.475 291.431C248.203 296.591 253.547 302.162 258.466 308.1C263.567 314.31 268.002 321.039 271.698 328.176C275.578 335.594 278.328 343.551 279.854 351.783C281.46 360.337 281.103 369.143 278.812 377.539C276.214 386.156 271.671 394.06 265.534 400.639C259.159 407.315 251.98 413.172 244.161 418.075C236.357 423.233 228.124 427.929 219.983 432.995C211.644 437.973 203.785 443.718 196.51 450.155C181.536 463.746 169.805 480.532 162.181 499.271C154.188 518.921 151.145 540.238 153.319 561.343C155.433 583.287 162.91 604.372 175.091 622.739L174.784 622.57H436.01L435.658 622.785C438.89 616.143 441.646 609.28 443.906 602.248C446.203 595.268 448.067 588.153 449.487 580.943C452.412 566.682 453.264 552.072 452.017 537.567C450.804 523.267 447.018 509.305 440.84 496.355C437.789 489.972 434.15 483.888 429.969 478.182C425.784 472.528 421.268 467.126 416.447 462.004C406.992 451.69 397.195 441.882 387.055 432.58C376.997 423.233 366.495 414.576 356.545 405.474C351.504 401.01 346.927 396.048 342.884 390.662C338.913 385.256 336.195 379.032 334.927 372.443C334.312 369.193 333.979 365.896 333.93 362.589C333.853 360.946 333.93 359.304 333.93 357.662C333.93 356.019 334.206 354.392 334.329 352.765C334.888 346.275 336.279 339.883 338.468 333.748C342.994 321.74 350.44 311.052 360.132 302.651C364.732 298.399 369.653 294.531 374.483 290.663C376.906 288.73 379.282 286.796 381.597 284.785C383.912 282.774 386.197 280.656 388.588 278.814C393.464 275.13 398.416 271.661 403.154 267.978C407.888 264.368 412.438 260.52 416.784 256.451C421.057 252.451 425.057 248.17 428.758 243.634C432.37 239.151 435.645 234.405 438.555 229.436C444.139 219.683 448.106 209.088 450.3 198.063C452.318 187.425 452.901 176.563 452.032 165.769C451.178 155.384 449.335 145.105 446.528 135.071C443.879 125.457 440.643 116.015 436.838 106.798L437.099 106.982L249.451 106.906L198.426 106.829H185.149L180.61 106.752Z" fill="#263238"/>
<path d="M426.673 177.818C465.156 184.142 404.488 252.383 370.129 279.305C350.197 294.9 328.886 311.799 319.441 335.268C308.709 361.867 316.666 391.783 311.484 418.551C311.317 419.474 310.808 420.3 310.058 420.862C309.308 421.425 308.373 421.682 307.441 421.583C306.509 421.484 305.649 421.036 305.034 420.328C304.419 419.62 304.094 418.706 304.125 417.768C304.37 400.194 303.91 382.635 301.058 365.336C296.934 340.778 287.52 316.527 270.394 298.553C256.366 283.879 237.983 274.133 223.034 260.411C201.201 240.457 178.771 214.533 176.578 184.97C176.578 184.97 218.496 151.203 241.77 155.439C268.969 160.427 295.738 202.422 337.87 197.618C367.185 194.257 382.042 170.466 426.673 177.818Z" fill="url(#paint0_linear)"/>
<path d="M430.092 543.031C429.126 533.408 426.55 522.494 418.011 517.951C412.844 515.204 406.542 515.511 400.869 516.999C395.197 518.488 389.876 521.067 384.265 522.74C373.11 526.021 361.2 525.645 350.274 521.666C339.833 517.828 330.879 510.921 321.143 505.426C311.407 499.931 300.108 495.895 289.314 498.596C270.701 503.201 261.011 525.656 242.613 531.074C234.426 533.484 225.64 532.134 217.33 530.246C209.021 528.358 200.665 525.933 192.155 526.255C185.471 526.516 178.525 528.818 173.849 533.392L173.726 533.546C172.944 534.3 172.236 535.128 171.611 536.017C165.907 543.691 164.987 553.883 166.75 563.185C168.713 573.591 173.573 583.215 178.786 592.44C184.919 603.307 191.91 614.128 202.06 621.372C214.601 630.306 230.347 624.135 245.695 625.348C281.464 628.172 319.947 630.106 355.732 627.328C374.636 625.87 392.345 627.911 407.339 616.307C417.888 608.142 424.757 595.832 428.068 582.893C431.38 569.953 431.426 556.324 430.092 543.031Z" fill="url(#paint1_linear)"/>
<g opacity="0.24">
<path opacity="0.24" d="M362.57 524.582C360.562 527.652 359.688 531.827 361.65 534.973C363.613 538.12 366.25 540.975 367.062 544.566C368.396 550.23 364.993 555.756 362.463 560.974C357.781 570.333 356.013 580.882 357.388 591.258C358.835 601.668 364.206 611.13 372.398 617.704C376.032 620.513 380.754 622.692 385.139 621.326C389.263 620.022 391.916 615.831 392.805 611.595C393.694 607.359 392.943 602.969 392.406 598.671C389.909 578.718 390.426 558.502 393.939 538.703C394.522 535.388 395.074 531.627 392.989 529.002C391.483 527.475 389.574 526.41 387.485 525.933C379.512 523.277 370.911 526.224 362.647 524.659" fill="black"/>
</g>
<path d="M155.543 634.833C155.543 634.833 154.822 622.815 170.461 616.138H445.286C445.286 616.138 459.621 623.399 461.385 634.557L155.543 634.833Z" fill="#263238"/>
<path d="M439.475 108.226L439.03 108.425L180.61 106.752C180.61 106.752 179.69 106.169 178.326 105.094C176.715 103.831 175.539 102.094 174.965 100.128C174.39 98.1618 174.445 96.0647 175.121 94.1312C175.798 92.1977 177.062 90.5248 178.737 89.3473C180.411 88.1698 182.412 87.5468 184.458 87.5659L435.289 89.5919C445.608 89.6687 448.828 103.79 439.475 108.226Z" fill="#263238"/>
<g opacity="0.24">
<path opacity="0.24" d="M398.11 206.904C398.631 207.902 396.684 210.066 392.989 213.351C389.294 216.635 383.79 221.163 376.951 226.735C368.741 233.526 360.028 239.683 350.887 245.154C345.21 248.408 339.24 251.121 333.056 253.258C329.702 254.426 326.276 255.375 322.799 256.098C319.151 256.889 315.443 257.371 311.714 257.54C304.16 257.951 296.598 256.909 289.437 254.471C283.108 252.159 277.092 249.065 271.529 245.261C266.377 241.838 261.946 238.462 257.73 235.238C253.514 232.015 249.757 228.868 246.354 225.937C232.785 214.164 225.64 205.507 227.02 203.834C228.4 202.161 238.059 207.61 253.085 216.82L265.35 224.341C269.75 227.011 274.457 229.958 279.272 232.69C284.049 235.498 289.111 237.788 294.374 239.521C299.755 241.15 305.381 241.815 310.993 241.485C322.768 240.887 334.191 236.727 344.08 231.954C353.969 227.18 362.923 221.562 370.681 217.219C376.821 213.588 383.239 210.452 389.876 207.84C394.66 206.259 397.604 205.952 398.11 206.904Z" fill="black"/>
</g>
<path d="M304.308 450.615C305.381 450.263 306.549 450.349 307.559 450.853C308.569 451.357 309.341 452.239 309.706 453.308C310.072 454.377 310.002 455.547 309.512 456.565C309.022 457.583 308.151 458.367 307.088 458.747C306.025 459.127 304.856 459.073 303.833 458.596C302.809 458.119 302.015 457.258 301.621 456.199C301.227 455.14 301.266 453.968 301.729 452.937C302.192 451.907 303.041 451.1 304.094 450.692" fill="#E8505B"/>
<path d="M211.887 249.728C211.556 249.446 211.249 249.138 210.968 248.807C210.354 248.116 209.511 247.272 208.468 246.059C207.426 244.847 206.015 243.419 204.589 241.624L199.714 235.484C198.043 233.12 196.157 230.588 194.256 227.809L191.45 223.343C190.975 222.575 190.469 221.808 190.009 221.01L188.66 218.508C184.571 211.246 181.374 203.515 179.138 195.485C176.881 187.488 175.665 179.234 175.52 170.926C175.52 169.023 175.627 167.15 175.658 165.339C175.658 164.434 175.658 163.543 175.781 162.668C175.903 161.794 175.965 160.919 176.057 160.074C176.256 158.386 176.379 156.744 176.609 155.193C176.839 153.643 177.161 152.124 177.421 150.712C177.85 147.857 178.617 145.339 179.154 143.037C179.445 141.932 179.675 140.888 179.966 139.967C180.258 139.046 180.549 138.187 180.81 137.419L181.99 133.889C182.11 133.473 182.264 133.068 182.45 132.677C182.389 133.105 182.286 133.527 182.143 133.935C181.883 134.825 181.545 136.007 181.101 137.511L180.334 140.075C180.074 141.026 179.859 142.07 179.583 143.145C179.092 145.385 178.372 147.887 178.05 150.819C177.804 152.246 177.559 153.72 177.299 155.27C177.038 156.82 176.977 158.463 176.793 160.136C176.716 160.98 176.624 161.84 176.532 162.714C176.44 163.589 176.532 164.464 176.44 165.37C176.44 167.166 176.317 169.023 176.333 170.926C176.51 179.173 177.736 187.364 179.982 195.3C182.214 203.245 185.368 210.9 189.38 218.109C189.83 218.958 190.274 219.787 190.714 220.595C191.159 221.409 191.665 222.13 192.125 222.944L194.884 227.41C196.755 230.219 198.61 232.767 200.235 235.085C201.86 237.403 203.608 239.398 205.019 241.224C206.429 243.051 207.763 244.478 208.775 245.722L211.167 248.577C211.442 248.937 211.683 249.322 211.887 249.728Z" fill="#263238"/>
<path d="M197.337 477.752C197.405 477.571 197.498 477.401 197.613 477.246L198.533 475.803L200.066 473.47L201.032 471.935C201.416 471.428 201.86 470.922 202.305 470.4L205.371 466.732C206.552 465.458 207.901 464.138 209.327 462.679C212.637 459.502 216.151 456.544 219.845 453.823C227.986 447.684 238.488 441.544 249.865 434.345C255.843 430.649 261.593 426.595 267.082 422.204C272.964 417.502 278.161 412 282.522 405.858C290.497 393.591 294.83 379.311 295.017 364.676C295.212 352.754 293.216 340.897 289.13 329.696C286.426 322.128 283.028 314.826 278.98 307.885C277.554 305.429 276.389 303.541 275.592 302.283L274.687 300.84C274.581 300.671 274.483 300.497 274.396 300.318C274.532 300.465 274.655 300.625 274.764 300.794L275.73 302.191C276.573 303.434 277.784 305.26 279.241 307.732C283.411 314.637 286.903 321.931 289.666 329.512C293.864 340.758 295.943 352.686 295.799 364.692C295.734 368.159 295.453 371.62 294.956 375.052C294.458 378.637 293.705 382.181 292.702 385.658C290.653 393.002 287.455 399.975 283.227 406.318C278.817 412.519 273.564 418.073 267.619 422.818C262.097 427.213 256.317 431.272 250.309 434.975C238.749 442.05 228.231 448.19 220.09 454.33C216.4 457.024 212.878 459.94 209.542 463.063C208.116 464.491 206.751 465.795 205.555 467.039L202.489 470.661C202.029 471.213 201.584 471.705 201.201 472.196L200.204 473.654L198.671 475.941L197.69 477.338L197.337 477.752Z" fill="#263238"/>
<path d="M183.079 504.874C182.987 505.119 182.875 505.355 182.741 505.58L181.638 507.529C181.147 508.373 180.564 509.402 179.982 510.599C179.399 511.796 178.602 513.208 177.958 514.82C177.621 515.618 177.253 516.447 176.885 517.322C176.517 518.197 176.21 519.133 175.842 520.085C175.106 521.973 174.524 524.075 173.849 526.224C171.198 535.818 170.284 545.809 171.15 555.725C171.411 557.997 171.595 560.161 171.994 562.172C172.162 563.169 172.3 564.152 172.5 565.072L173.113 567.712C173.45 569.416 173.956 570.905 174.324 572.24C174.692 573.576 175.06 574.696 175.397 575.602C175.735 576.507 175.919 577.137 176.118 577.72C176.221 577.965 176.288 578.223 176.317 578.487C176.172 578.267 176.054 578.03 175.965 577.781C175.735 577.229 175.459 576.538 175.106 575.709C174.643 574.622 174.238 573.51 173.895 572.379C173.481 571.043 172.944 569.554 172.561 567.774C172.346 566.93 172.132 566.039 171.902 565.118C171.672 564.198 171.534 563.215 171.334 562.202C170.905 560.191 170.691 558.012 170.415 555.71C169.456 545.705 170.381 535.61 173.144 525.948C173.834 523.738 174.447 521.635 175.229 519.808C175.612 518.841 175.919 517.905 176.317 517.03C176.716 516.155 177.084 515.342 177.452 514.544C178.127 512.932 178.985 511.566 179.583 510.353C180.121 509.296 180.72 508.271 181.377 507.284L182.603 505.411C182.895 505.073 183.048 504.858 183.079 504.874Z" fill="#263238"/>
<path d="M372.567 541.819C372.567 541.819 372.475 541.911 372.26 542.049L371.31 542.648L367.645 544.889L364.901 546.423C363.889 546.976 362.77 547.498 361.574 548.112C359.151 549.278 356.484 550.752 353.325 551.949L348.419 553.96C346.717 554.651 344.862 555.172 342.991 555.832C339.266 557.198 335.126 558.165 330.818 559.286C311.9 563.711 292.28 564.233 273.154 560.821C268.785 559.915 264.599 559.163 260.797 557.997C258.896 557.444 257.025 557.014 255.277 556.462L250.279 554.712C247.075 553.683 244.315 552.333 241.846 551.304C240.62 550.752 239.47 550.291 238.443 549.77L235.652 548.311L231.819 546.27L230.838 545.733C230.721 545.677 230.612 545.605 230.516 545.518C230.516 545.518 230.654 545.518 230.884 545.656L231.896 546.132L235.79 548.035L238.596 549.432C239.639 549.908 240.804 550.353 242.03 550.875C244.499 551.872 247.259 553.177 250.478 554.159L255.461 555.863C257.209 556.431 259.08 556.845 260.981 557.398C264.768 558.534 268.923 559.255 273.246 560.13C292.282 563.441 311.786 562.919 330.619 558.595C334.911 557.49 339.036 556.538 342.761 555.218C344.632 554.589 346.472 554.067 348.174 553.407L353.08 551.443C356.238 550.291 358.921 548.849 361.344 547.728C362.54 547.145 363.674 546.638 364.686 546.101L367.415 544.566L371.202 542.463L372.199 541.926L372.567 541.819Z" fill="#263238"/>
<path d="M388.619 216.912C388.619 216.912 388.527 217.034 388.297 217.219L387.285 218.047L383.376 221.117C379.972 223.819 375.035 227.733 368.795 232.399C361.529 237.917 353.914 242.956 345.996 247.487C341.282 250.12 336.372 252.383 331.308 254.256C325.832 256.271 320.116 257.561 314.305 258.093C303.044 258.726 291.814 256.386 281.74 251.309C277.383 249.093 273.178 246.591 269.152 243.818C265.411 241.163 261.992 238.615 258.972 236.144C252.839 231.263 248.148 227.134 244.836 224.31L241.095 221.025L240.129 220.15L239.807 219.828C239.939 219.901 240.062 219.989 240.175 220.089L241.202 220.902L245.081 224.064C248.454 226.812 253.269 230.879 259.371 235.683C262.437 238.109 265.825 240.626 269.582 243.235C273.592 245.976 277.776 248.452 282.108 250.649C292.085 255.616 303.179 257.906 314.305 257.295C320.027 256.779 325.659 255.531 331.063 253.58C336.092 251.732 340.972 249.5 345.659 246.904C353.568 242.412 361.193 237.434 368.488 232C374.744 227.395 379.727 223.558 383.207 220.933L387.209 217.863L388.266 217.096L388.619 216.912Z" fill="#263238"/>
<g opacity="0.24">
<path opacity="0.24" d="M250.34 554.65C257.608 549.033 267.819 550.399 276.803 552.287C285.788 554.175 294.834 557.26 303.926 555.986C310.779 555.019 317.065 551.642 323.857 550.184C330.649 548.726 338.821 549.8 342.577 555.617C312.553 565.297 280.201 564.958 250.386 554.65" fill="black"/>
</g>
<path d="M503.885 512.993L470.875 475.987L470.538 520.975L480.473 549.831L381.766 566.991L377.58 488.972L370.466 429.111C370.041 425.542 370.809 421.932 372.651 418.847C374.493 415.761 377.305 413.374 380.646 412.058L407.83 401.314L446.16 408.344L461.492 414.161C467.953 416.63 473.712 420.646 478.265 425.857L524.598 478.888" fill="url(#paint2_linear)"/>
<path d="M468.56 467.131C470.421 467.107 472.279 466.979 474.126 466.747C478.572 466.061 482.714 464.063 486.021 461.009C489.328 457.955 491.651 453.984 492.693 449.602C493.074 447.777 493.355 445.932 493.536 444.077C493.66 444.578 493.707 445.096 493.674 445.611C493.686 446.999 493.542 448.385 493.245 449.74C492.316 454.298 489.979 458.448 486.564 461.602C483.15 464.756 478.83 466.755 474.218 467.315C472.84 467.497 471.448 467.533 470.063 467.422C469.549 467.413 469.04 467.314 468.56 467.131Z" fill="white"/>
<path d="M471.443 519.056C471.673 519.056 471.734 503.477 471.581 484.26C471.427 465.043 471.105 449.449 470.875 449.449C470.645 449.449 470.584 465.074 470.691 484.26C470.799 503.446 471.213 519.072 471.443 519.056Z" fill="#263238"/>
<path d="M467.824 530.507L408.152 506.516C405.792 505.563 403.745 503.968 402.241 501.913C400.738 499.857 399.838 497.422 399.643 494.882L395.273 437.599C395.273 437.599 395.795 413.24 380.585 412.058L371.938 415.466C360.761 421.406 358.001 437.691 359.519 450.277C361.681 468.144 362.586 493.423 365.008 508.941C366.986 521.635 374.207 532.794 386.641 536.063L460.143 551.98L467.824 530.507Z" fill="#E31A20"/>
<path d="M396.132 446.271C396.231 446.705 396.292 447.147 396.316 447.591C396.408 448.528 396.546 449.786 396.699 451.367C397.006 454.729 397.435 459.456 397.956 465.258C398.478 471.06 399.06 478.12 399.735 485.872C399.888 487.806 400.057 489.801 400.226 491.827C400.343 493.889 400.599 495.94 400.992 497.967C401.408 500.021 402.447 501.897 403.967 503.339C405.606 504.767 407.465 505.923 409.471 506.762C425.922 513.899 441.085 519.778 452.094 523.906L465.172 528.726L468.729 530.046C469.148 530.175 469.554 530.345 469.94 530.553C469.506 530.473 469.08 530.355 468.667 530.2L465.064 529.018C461.998 527.989 457.398 526.439 451.91 524.413C440.825 520.407 425.646 514.62 409.133 507.529C407.042 506.656 405.11 505.442 403.415 503.937C401.788 502.391 400.674 500.382 400.226 498.182C399.83 496.119 399.579 494.032 399.474 491.935C399.306 489.908 399.152 487.913 398.999 485.979C398.401 478.305 397.849 471.244 397.466 465.35C397.083 459.456 396.699 454.79 396.454 451.429C396.352 449.853 396.275 448.594 396.224 447.653C396.154 447.196 396.123 446.734 396.132 446.271Z" fill="#263238"/>
<path d="M361.942 477.353C362.003 477.605 362.039 477.862 362.049 478.12L362.248 480.331C362.432 482.372 362.662 485.12 362.954 488.466C363.245 491.812 363.705 495.971 364.303 500.484C364.888 505.371 365.784 510.216 366.986 514.989C367.547 517.448 368.533 519.791 369.899 521.911C371.223 523.865 372.716 525.699 374.361 527.391C377.15 530.27 380.373 532.694 383.912 534.574C387.211 536.252 390.748 537.412 394.399 538.012C394.14 538.039 393.877 538.039 393.618 538.012C392.876 537.97 392.139 537.877 391.41 537.736C388.715 537.226 386.104 536.342 383.652 535.111C380.01 533.277 376.695 530.856 373.839 527.943C372.141 526.235 370.601 524.375 369.24 522.387C367.811 520.199 366.773 517.779 366.173 515.234C364.955 510.425 364.069 505.538 363.521 500.607C362.969 496.079 362.601 491.981 362.356 488.542C362.11 485.104 361.972 482.311 361.896 480.392C361.896 479.502 361.896 478.765 361.896 478.167C361.869 477.895 361.884 477.62 361.942 477.353Z" fill="#263238"/>
<path d="M387.454 517.506C387.607 516.381 387.977 515.297 388.543 514.313C389.77 511.867 391.473 509.691 393.554 507.914C395.634 506.138 398.048 504.796 400.655 503.968C401.712 503.565 402.836 503.367 403.967 503.385C403.967 503.523 402.74 503.769 400.9 504.505C398.436 505.454 396.149 506.813 394.139 508.527C392.132 510.253 390.428 512.302 389.095 514.59C388.021 516.355 387.577 517.552 387.454 517.506Z" fill="#263238"/>
<path d="M399.198 473.946C399.328 473.984 399.452 474.041 399.566 474.114L400.639 474.667C402.022 475.356 403.446 475.961 404.902 476.478C410.268 478.358 416.022 478.849 421.629 477.906C429.959 476.418 437.401 471.786 442.419 464.966C445.419 461.033 447.299 456.36 447.862 451.444C448.144 448.858 447.872 446.242 447.065 443.769C446.224 441.241 444.745 438.973 442.772 437.185C440.841 435.356 438.394 434.167 435.765 433.777C434.522 433.552 433.245 433.612 432.029 433.952C430.812 434.293 429.689 434.905 428.743 435.742C427.884 436.585 427.388 437.731 427.363 438.935C427.395 440.125 427.803 441.275 428.528 442.219C429.292 443.125 430.227 443.87 431.279 444.413C432.332 444.956 433.481 445.285 434.661 445.381C438.804 445.893 443.01 445.358 446.893 443.824C450.776 442.29 454.214 439.807 456.892 436.602C458.928 434.101 460.459 431.229 461.4 428.144C462.105 425.813 462.486 423.396 462.535 420.961C462.552 419.419 462.439 417.879 462.197 416.356C462.105 415.865 462.029 415.481 461.983 415.159C461.969 415.026 461.969 414.893 461.983 414.76C462.618 416.743 462.929 418.817 462.903 420.9C462.916 423.376 462.575 425.841 461.891 428.221C460.977 431.384 459.451 434.336 457.398 436.908C454.675 440.248 451.153 442.843 447.159 444.453C443.164 446.064 438.828 446.636 434.554 446.118C431.997 445.88 429.637 444.638 427.992 442.664C427.153 441.601 426.689 440.289 426.673 438.935C426.67 437.533 427.221 436.186 428.206 435.189C429.236 434.269 430.46 433.592 431.788 433.209C433.115 432.826 434.511 432.748 435.872 432.979C438.661 433.393 441.256 434.652 443.308 436.586C445.378 438.47 446.93 440.853 447.816 443.509C448.651 446.081 448.933 448.801 448.644 451.49C448.062 456.55 446.117 461.357 443.017 465.396C438.754 471.202 432.712 475.455 425.812 477.505C418.912 479.556 411.531 479.292 404.794 476.754C402.817 476.061 400.936 475.117 399.198 473.946Z" fill="white"/>
<path d="M360.102 458.658C360.37 458.205 360.7 457.791 361.083 457.43C362.068 456.402 363.146 455.466 364.303 454.637C368.215 451.939 372.768 450.319 377.503 449.94C380.102 449.652 382.728 449.766 385.292 450.277C387.375 450.706 389.392 451.413 391.287 452.38C392.559 453.026 393.779 453.77 394.936 454.606C395.384 454.88 395.787 455.222 396.132 455.619C396.04 455.742 394.261 454.391 391.041 452.887C386.842 450.946 382.189 450.203 377.595 450.738C372.982 451.114 368.53 452.611 364.625 455.097C361.665 457.062 360.209 458.781 360.102 458.658Z" fill="white"/>
<path d="M369.653 417.707C371.117 419.068 372.738 420.248 374.483 421.222C376.397 422.198 378.477 422.807 380.616 423.018C383.23 423.333 385.881 422.969 388.314 421.961C390.747 420.953 392.88 419.335 394.506 417.262C395.872 415.593 396.912 413.682 397.573 411.629C398.123 409.709 398.437 407.73 398.508 405.735C398.659 406.263 398.726 406.812 398.707 407.362C398.734 408.862 398.532 410.358 398.109 411.798C397.491 413.957 396.449 415.971 395.043 417.722C393.36 419.922 391.127 421.637 388.569 422.697C386.012 423.756 383.221 424.121 380.478 423.754C378.255 423.491 376.104 422.797 374.146 421.713C372.832 420.988 371.634 420.073 370.589 418.996C370.209 418.62 369.893 418.185 369.653 417.707Z" fill="white"/>
<path d="M421.629 511.888C421.632 511.512 421.673 511.136 421.752 510.768C421.964 509.701 422.32 508.669 422.809 507.698C424.759 504.123 427.925 501.367 431.733 499.931C437.338 497.708 443.538 497.486 449.288 499.302C452.446 500.254 456.065 501.405 458.487 504.49C459.095 505.279 459.478 506.217 459.597 507.206C459.716 508.195 459.565 509.197 459.162 510.108C458.241 511.891 456.744 513.308 454.915 514.129C453.155 515.006 451.223 515.483 449.257 515.526C447.305 515.627 445.381 515.029 443.83 513.838C443.115 513.225 442.532 512.474 442.116 511.63C441.7 510.786 441.459 509.866 441.407 508.926C441.307 507.158 441.584 505.39 442.22 503.738C444.53 498.142 448.931 493.671 454.485 491.275C458.169 489.626 462.208 488.935 466.23 489.264C467.694 489.375 469.138 489.68 470.523 490.169C470.523 490.262 468.989 489.755 466.199 489.571C462.248 489.38 458.31 490.144 454.715 491.796C452.24 492.944 449.975 494.501 448.015 496.401C445.77 498.558 444.018 501.176 442.879 504.076C442.283 505.625 442.027 507.284 442.128 508.941C442.172 509.781 442.388 510.602 442.763 511.355C443.137 512.107 443.662 512.775 444.305 513.316C445.703 514.401 447.445 514.946 449.211 514.851C451.055 514.81 452.867 514.359 454.516 513.531C456.185 512.797 457.557 511.521 458.41 509.908C458.756 509.124 458.884 508.261 458.781 507.411C458.679 506.56 458.349 505.753 457.828 505.073C456.763 503.713 455.392 502.624 453.826 501.896C452.312 501.171 450.737 500.58 449.119 500.131C443.52 498.332 437.477 498.489 431.978 500.576C428.257 501.931 425.123 504.542 423.116 507.959C422.454 509.199 421.954 510.52 421.629 511.888Z" fill="white"/>
<path d="M381.919 533.469C381.919 533.315 384.188 533.116 387.638 531.934C392.139 530.356 396.174 527.674 399.372 524.132C402.57 520.589 404.83 516.301 405.944 511.658C406.818 508.097 406.787 505.795 406.941 505.795C407.047 506.325 407.073 506.868 407.017 507.406C406.982 508.878 406.808 510.342 406.496 511.781C405.506 516.565 403.261 520.999 399.992 524.627C396.724 528.255 392.55 530.946 387.898 532.425C386.499 532.873 385.062 533.197 383.605 533.392C383.05 533.503 382.482 533.529 381.919 533.469Z" fill="white"/>
<path d="M362.57 488.941C362.794 488.807 363.037 488.708 363.291 488.65C363.782 488.496 364.487 488.266 365.422 488.036C368.073 487.321 370.823 487.041 373.563 487.207C375.466 487.351 377.332 487.813 379.083 488.573C381.125 489.449 382.901 490.846 384.234 492.625C385.705 494.638 386.416 497.106 386.243 499.594C386.147 500.912 385.742 502.19 385.062 503.323C384.377 504.529 383.292 505.458 381.996 505.948C381.313 506.178 380.581 506.225 379.874 506.085C379.167 505.945 378.508 505.623 377.964 505.15C377.041 504.13 376.542 502.796 376.568 501.42C376.489 498.974 376.972 496.543 377.979 494.314C378.811 492.426 380.009 490.723 381.504 489.302C382.999 487.882 384.761 486.774 386.688 486.041C389.276 485.074 392.071 484.798 394.798 485.242C395.532 485.368 396.255 485.553 396.96 485.795C397.435 485.964 397.681 486.071 397.665 486.102C397.65 486.133 396.638 485.78 394.752 485.549C392.086 485.233 389.383 485.586 386.887 486.578C383.188 488.063 380.228 490.955 378.654 494.621C377.716 496.75 377.27 499.064 377.35 501.389C377.322 502.558 377.738 503.694 378.516 504.567C378.955 504.941 379.485 505.195 380.052 505.302C380.619 505.41 381.205 505.368 381.751 505.181C382.889 504.765 383.844 503.96 384.449 502.909C385.067 501.878 385.435 500.716 385.522 499.517C385.683 497.216 385.038 494.931 383.698 493.055C382.449 491.365 380.786 490.028 378.868 489.172C377.19 488.414 375.397 487.941 373.563 487.775C370.883 487.563 368.186 487.749 365.56 488.327C363.628 488.727 362.601 489.003 362.57 488.941Z" fill="white"/>
<g opacity="0.3">
<path opacity="0.3" d="M450.76 523.676C444.366 520.069 438.126 517.291 431.457 514.252C424.787 511.213 418.241 507.33 413.871 501.436C405.638 490.323 406.573 474.283 398.156 463.309C398.708 470.697 399.255 478.069 399.796 485.427C400.302 492.195 399.275 498.872 403.614 503.462C407.278 507.345 414.423 510.307 419.483 511.98C429.648 515.326 440.595 520.315 450.76 523.676Z" fill="black"/>
</g>
<path d="M554.373 607.819C554.373 607.819 604.309 621.633 606.318 622.355C609.384 623.414 608.817 634.45 604.14 634.281C601.917 634.281 565.81 635.632 561.211 635.34C556.611 635.048 542.812 629.615 542.812 629.615L554.373 607.819Z" fill="#E31A20"/>
<path d="M575.179 626.944C575.796 625.107 576.533 623.312 577.387 621.572C578.464 619.965 579.642 618.427 580.913 616.967C579.137 617.946 577.664 619.394 576.653 621.153C575.642 622.912 575.132 624.915 575.179 626.944Z" fill="#263238"/>
<path d="M569.966 624.58C570.211 624.58 570.717 622.247 572.051 619.638C573.385 617.029 574.949 615.202 574.78 615.033C573.226 616.069 572.015 617.543 571.3 619.27C570.35 620.873 569.886 622.718 569.966 624.58Z" fill="#263238"/>
<path d="M565.09 623.26C565.337 621.472 565.727 619.706 566.255 617.98C567.038 616.374 567.951 614.834 568.984 613.376C567.298 614.323 566.041 615.884 565.473 617.735C564.663 619.465 564.526 621.435 565.09 623.26Z" fill="#263238"/>
<path d="M565.979 616.814C566.415 615.621 566.598 614.351 566.516 613.084C566.501 611.713 566.332 610.349 566.01 609.017C565.816 608.222 565.564 607.442 565.259 606.683C565.109 606.214 564.833 605.794 564.461 605.471C564.222 605.266 563.918 605.153 563.603 605.153C563.288 605.153 562.983 605.266 562.744 605.471C562.359 605.845 562.125 606.347 562.085 606.883C562.055 607.323 562.055 607.764 562.085 608.203C562.09 609.031 562.193 609.855 562.392 610.659C562.726 611.997 563.242 613.283 563.925 614.481C564.48 615.631 565.238 616.671 566.163 617.551C566.286 617.474 565.443 616.307 564.446 614.266C563.866 613.084 563.428 611.837 563.143 610.551C562.981 609.8 562.899 609.033 562.898 608.264C562.898 607.497 562.897 606.53 563.357 606.162C563.446 606.076 563.564 606.029 563.687 606.029C563.81 606.029 563.928 606.076 564.017 606.162C564.266 606.407 564.455 606.706 564.569 607.036C565.371 608.992 565.848 611.066 565.979 613.176C566.071 615.371 565.841 616.783 565.979 616.814Z" fill="#263238"/>
<path d="M565.918 616.292C564.898 615.877 563.796 615.704 562.699 615.785C561.504 615.77 560.313 615.914 559.157 616.215C558.439 616.364 557.747 616.617 557.102 616.967C556.692 617.173 556.36 617.509 556.158 617.922C555.955 618.335 555.894 618.803 555.983 619.254C556.097 619.684 556.324 620.075 556.639 620.388C556.954 620.701 557.347 620.924 557.777 621.035C558.512 621.219 559.281 621.219 560.015 621.035C561.193 620.752 562.299 620.229 563.266 619.5C564.178 618.888 564.964 618.106 565.581 617.197C564.661 617.747 563.775 618.352 562.929 619.009C562 619.641 560.959 620.089 559.862 620.329C559.252 620.475 558.617 620.475 558.007 620.329C557.718 620.253 557.454 620.103 557.241 619.893C557.028 619.682 556.875 619.42 556.796 619.131C556.752 618.85 556.799 618.562 556.932 618.311C557.065 618.059 557.275 617.857 557.532 617.735C558.104 617.427 558.712 617.19 559.341 617.029C560.443 616.722 561.573 616.527 562.714 616.445C564.661 616.231 565.888 616.43 565.918 616.292Z" fill="#263238"/>
<path d="M582.86 627.466C583.056 625.941 583.384 624.437 583.841 622.969C584.537 621.595 585.353 620.285 586.279 619.055C586.202 618.84 584.117 620.037 583.059 622.646C582.675 623.386 582.459 624.201 582.424 625.034C582.39 625.867 582.538 626.697 582.86 627.466Z" fill="#263238"/>
<path d="M548.01 629.784C548.623 630.149 549.27 630.452 549.942 630.689C551.75 631.392 553.604 631.967 555.492 632.408C561.753 633.784 568.158 634.392 574.565 634.22C582.047 634.143 588.793 633.805 593.684 633.606L599.464 633.299C600.176 633.298 600.885 633.22 601.58 633.068C600.875 632.959 600.161 632.928 599.449 632.976H593.669L574.565 633.36C568.217 633.523 561.87 633.009 555.63 631.825C550.847 630.843 548.072 629.63 548.01 629.784Z" fill="#263238"/>
<path d="M546.538 630.92C546.538 631.042 547.964 630.229 550.279 629.216C553.223 627.832 556.494 627.301 559.724 627.681C562.901 628.375 565.769 630.083 567.896 632.547C568.792 633.585 569.749 634.569 570.763 635.494C570.109 634.271 569.288 633.145 568.325 632.147C567.341 631.002 566.23 629.972 565.013 629.078C563.495 627.946 561.729 627.194 559.862 626.883C556.466 626.474 553.028 627.129 550.018 628.755C548.751 629.288 547.577 630.019 546.538 630.92Z" fill="#263238"/>
<path d="M501.355 594.005C501.355 594.005 454.102 624.979 452.415 626.238C449.87 628.157 452.783 637.335 457.199 635.739C459.284 634.987 498.932 623.951 503.195 622.293C507.457 620.636 518.941 611.257 518.941 611.257L501.355 594.005Z" fill="url(#paint3_linear)"/>
<path d="M487.342 618.564C486.899 616.563 485.784 614.775 484.183 613.498C482.763 612.018 480.881 611.065 478.848 610.797C480.501 611.807 482.093 612.914 483.616 614.112C484.951 615.515 486.196 617.002 487.342 618.564Z" fill="#263238"/>
<path d="M491.589 614.726C490.987 612.974 490.006 611.378 488.715 610.051C487.424 608.724 485.855 607.7 484.122 607.052C483.999 607.267 486.069 608.587 488.108 610.613C490.147 612.639 491.359 614.834 491.589 614.726Z" fill="#263238"/>
<path d="M495.836 611.994C495.698 610.089 494.98 608.272 493.78 606.787C492.579 605.303 490.953 604.222 489.12 603.69C490.544 604.794 491.882 606.005 493.122 607.313C494.152 608.797 495.059 610.363 495.836 611.994Z" fill="#263238"/>
<path d="M493.03 606.116C493.153 606.116 492.509 604.765 491.972 602.57C491.65 601.288 491.46 599.977 491.405 598.656C491.352 597.879 491.352 597.1 491.405 596.323C491.395 595.972 491.485 595.626 491.665 595.325C491.732 595.221 491.836 595.146 491.956 595.118C492.076 595.089 492.203 595.109 492.309 595.172C492.846 595.387 493.122 596.308 493.383 597.029C493.608 597.765 493.762 598.52 493.843 599.285C493.961 600.595 493.92 601.915 493.72 603.215C493.398 605.471 492.953 606.822 493.076 606.868C493.71 605.776 494.126 604.572 494.302 603.322C494.596 601.972 494.699 600.587 494.609 599.209C494.546 598.387 494.397 597.574 494.164 596.783C494.036 596.36 493.882 595.945 493.705 595.54C493.495 595.045 493.114 594.642 492.631 594.404C492.348 594.269 492.025 594.239 491.721 594.321C491.418 594.402 491.153 594.59 490.975 594.849C490.722 595.276 490.589 595.765 490.592 596.262C490.539 597.069 490.539 597.879 490.592 598.687C490.687 600.058 490.944 601.413 491.359 602.723C491.666 603.961 492.236 605.118 493.03 606.116Z" fill="#263238"/>
<path d="M492.938 605.609C492.938 605.732 494.103 605.164 496.004 604.703C497.114 604.429 498.25 604.275 499.393 604.243C500.044 604.199 500.699 604.24 501.34 604.366C501.624 604.4 501.889 604.526 502.094 604.726C502.299 604.926 502.433 605.188 502.474 605.471C502.491 605.776 502.424 606.081 502.28 606.351C502.137 606.621 501.924 606.848 501.662 607.006C501.136 607.343 500.536 607.548 499.914 607.604C498.794 607.699 497.666 607.584 496.587 607.267C495.591 606.883 494.565 606.58 493.521 606.361C494.395 607.039 495.381 607.558 496.434 607.896C497.575 608.318 498.791 608.5 500.006 608.433C500.761 608.387 501.493 608.155 502.137 607.758C502.515 607.52 502.824 607.186 503.031 606.789C503.239 606.393 503.338 605.949 503.318 605.502C503.261 605.047 503.058 604.624 502.74 604.294C502.422 603.965 502.006 603.748 501.555 603.675C500.837 603.541 500.104 603.51 499.377 603.583C498.183 603.648 497.003 603.87 495.866 604.243C494.798 604.467 493.796 604.934 492.938 605.609Z" fill="#263238"/>
<path d="M463.225 634.097C463.225 634.097 464.022 633.606 464.39 632.255C464.756 630.495 464.438 628.661 463.501 627.128C463.05 626.303 462.538 625.513 461.968 624.765C461.534 624.126 461.019 623.548 460.434 623.045C459.999 622.682 459.465 622.458 458.901 622.401C458.503 622.401 458.303 622.493 458.303 622.539C458.942 622.719 459.529 623.044 460.02 623.491C460.532 624.016 460.989 624.592 461.385 625.21C461.938 625.953 462.45 626.727 462.918 627.527C463.767 628.904 464.134 630.524 463.961 632.132C463.751 632.8 463.505 633.455 463.225 634.097Z" fill="#263238"/>
<path d="M480.197 621.403C480.178 619.745 479.588 618.145 478.526 616.873C477.465 615.601 475.997 614.734 474.371 614.419C477.052 616.013 479.108 618.478 480.197 621.403Z" fill="#263238"/>
<path d="M514.096 613.007C513.368 613.434 512.671 613.911 512.011 614.435C510.138 615.736 508.193 616.93 506.185 618.011C503.212 619.583 500.139 620.958 496.985 622.125C493.398 623.475 489.319 624.734 485.149 625.962C476.64 628.402 468.943 630.643 463.393 632.316L456.831 634.342C456.018 634.559 455.223 634.842 454.455 635.187C455.292 635.083 456.118 634.903 456.923 634.649L463.562 632.884C469.158 631.349 476.87 629.216 485.379 626.745C489.626 625.517 493.658 624.227 497.246 622.831C500.415 621.623 503.49 620.181 506.445 618.518C508.445 617.376 510.361 616.094 512.179 614.68C512.871 614.187 513.513 613.626 514.096 613.007Z" fill="#263238"/>
<path d="M515.844 613.637C514.573 613.078 513.223 612.72 511.842 612.578C508.485 611.941 505.013 612.365 501.907 613.79C500.224 614.656 498.769 615.908 497.66 617.443C496.777 618.678 496.032 620.006 495.437 621.403C494.827 622.648 494.389 623.97 494.134 625.333C494.826 624.151 495.441 622.926 495.974 621.664C497.244 618.662 499.463 616.161 502.29 614.542C505.257 613.202 508.54 612.724 511.766 613.161C513.116 613.389 514.477 613.547 515.844 613.637Z" fill="#263238"/>
<path d="M599.572 518.519C599.572 518.519 613.754 523.584 613.8 539.501C613.922 569.984 552.288 603.583 552.288 603.583L470.262 549.171L465.125 547.099C465.125 547.099 575.853 505.457 599.572 518.519Z" fill="#263238"/>
<path d="M511.812 576.661C512.569 576.239 513.287 575.751 513.958 575.203C515.292 574.236 517.208 572.778 519.569 570.966C524.261 567.329 530.655 562.187 537.523 556.277C544.392 550.368 550.417 544.888 554.741 540.729C556.888 538.672 558.605 536.999 559.785 535.817C560.426 535.239 561.011 534.602 561.533 533.914C560.832 534.415 560.171 534.969 559.555 535.572L554.342 540.284C549.942 544.274 543.84 549.739 536.971 555.633C530.103 561.527 523.786 566.745 519.202 570.491C516.978 572.286 515.154 573.791 513.759 574.926C513.062 575.448 512.41 576.028 511.812 576.661Z" fill="#455A64"/>
<path d="M576.482 529.923C573.827 529.493 571.107 529.736 568.57 530.629C565.961 531.266 563.55 532.536 561.548 534.328C561.686 534.543 564.615 532.64 568.816 531.443C573.017 530.246 576.482 530.169 576.482 529.923Z" fill="#455A64"/>
<path d="M569.352 525.119C567.386 525.79 565.684 527.069 564.492 528.772C563.081 530.3 562.186 532.233 561.932 534.298C562.177 534.39 563.066 531.827 565.136 529.294C567.206 526.761 569.49 525.334 569.352 525.119Z" fill="#455A64"/>
<path d="M604.079 621.633C604.079 621.541 603.098 621.342 601.963 622.278C600.632 623.536 599.795 625.229 599.602 627.052C599.333 628.836 599.589 630.66 600.338 632.301C600.921 633.544 601.565 634.143 601.641 634.081C601.442 633.398 601.191 632.731 600.89 632.086C600.352 630.503 600.194 628.815 600.43 627.159C600.615 625.52 601.288 623.974 602.362 622.723C603.236 621.787 604.079 621.756 604.079 621.633Z" fill="#263238"/>
<path d="M580.713 468.727L551.491 542.862L425.723 544.904L423.392 538.104L467.472 536.493L488.66 470.738L580.713 468.727Z" fill="#455A64"/>
<path d="M521.961 500.822C522.925 500.334 524.01 500.136 525.084 500.25C526.158 500.364 527.177 500.787 528.017 501.466C528.729 502.14 529.222 503.013 529.432 503.971C529.643 504.929 529.561 505.928 529.198 506.838C528.801 507.743 528.16 508.519 527.348 509.08C526.536 509.641 525.584 509.965 524.598 510.016C523.561 510.077 522.531 509.801 521.663 509.228C520.796 508.656 520.136 507.817 519.784 506.838C519.217 504.843 519.861 501.865 521.9 500.822" fill="#EBEBEB"/>
<path d="M560.046 607.282C560.046 607.282 444.167 531.197 439.429 529.539C434.692 527.882 423.208 520.438 411.755 523.615C400.302 526.792 389.999 537.061 384.863 552.103C381.919 560.698 380.539 575.372 379.88 586.361C378.999 599.526 383.259 612.519 391.762 622.6C395.532 627.298 400.533 630.853 406.205 632.869C407.416 633.237 408.673 633.56 409.961 633.851C420.716 636.055 431.886 634.958 442.008 630.702C452.129 626.446 460.732 619.23 466.69 609.999L469.388 605.87C469.388 605.87 545.204 633.759 546.385 633.36L560.046 607.282Z" fill="#263238"/>
<path d="M416.692 586.331L417.321 586.607L419.222 587.359L426.566 590.183L453.826 600.498C465.417 604.842 479.308 609.983 494.9 615.663C510.493 621.342 527.757 627.558 546.216 633.82L546.538 633.928L546.707 633.621C549.605 628.08 552.656 622.232 555.768 616.307C557.301 613.237 558.911 610.275 560.368 607.482L560.536 607.144L560.214 606.929L471.826 550.752L445.332 533.991L438.126 529.493L436.24 528.342L435.581 527.959C435.778 528.117 435.982 528.266 436.194 528.404L438.034 529.632L445.163 534.236L471.58 551.228L559.831 607.62L559.678 607.083L555.078 615.908C552.012 621.833 548.945 627.681 546.032 633.207L546.538 633.007C528.14 626.775 510.815 620.574 495.207 614.957L454.071 599.961L426.688 589.907L419.298 587.221L417.367 586.53C417.146 586.449 416.921 586.382 416.692 586.331Z" fill="#455A64"/>
<path d="M428.712 316.189C430.69 310.847 435.06 308.514 440.595 307.179C443.379 306.534 446.277 306.57 449.044 307.283C451.812 307.997 454.367 309.367 456.494 311.277C459.3 313.856 461.354 317.417 464.819 318.952C470.538 321.53 477.851 317.754 483.218 320.916C484.83 321.867 486.063 323.347 486.708 325.105C487.353 326.864 487.369 328.791 486.755 330.56C486.141 332.329 484.933 333.831 483.338 334.809C481.743 335.788 479.858 336.183 478.005 335.928C481.73 337.693 482.42 343.295 479.86 346.518C477.299 349.742 472.562 350.617 468.591 349.496C464.678 348.152 461.205 345.764 458.548 342.589C455.758 339.519 453.305 336.204 450.269 333.38C447.359 330.41 443.491 328.572 439.353 328.192C433.787 327.977 428.62 331.722 425.723 336.48C422.825 341.238 421.706 346.856 420.893 352.366C420.081 357.877 419.467 363.525 417.336 368.682C417.091 369.281 416.723 369.956 416.094 370.094C415.159 370.279 414.484 369.25 414.116 368.391C409.921 358.528 407.702 347.936 407.585 337.217C407.508 331.077 408.214 325.214 412.062 320.333C415.91 315.452 424.787 312.428 428.666 316.081" fill="#263238"/>
<path d="M415.65 340.885L407.125 402.849C406.781 405.352 406.95 407.9 407.622 410.335C408.293 412.771 409.454 415.044 411.032 417.016C412.61 418.988 414.573 420.618 416.801 421.805C419.029 422.993 421.475 423.713 423.99 423.923C428.746 424.338 433.48 422.905 437.21 419.922C440.94 416.939 443.382 412.634 444.029 407.899C444.658 403.294 445.21 399.334 445.302 398.858C445.302 398.858 461.262 399.549 464.543 384.093C466.076 376.618 468.146 360.977 469.817 346.795C470.664 339.455 468.721 332.065 464.375 326.093C460.029 320.121 453.598 316.005 446.36 314.562L444.826 314.255C428.513 311.937 417.474 324.508 415.65 340.885Z" fill="#FFBE9D"/>
<path d="M445.301 398.644C438.112 397.362 431.47 393.957 426.229 388.866C426.229 388.866 428.774 400.977 444.489 402.68L445.301 398.644Z" fill="#EB996E"/>
<path d="M463.163 356.265C463.055 356.844 462.725 357.357 462.244 357.695C461.762 358.034 461.168 358.17 460.588 358.076C460.302 358.042 460.026 357.951 459.776 357.809C459.526 357.666 459.307 357.474 459.132 357.245C458.958 357.016 458.831 356.754 458.76 356.475C458.689 356.196 458.674 355.905 458.717 355.62C458.826 355.042 459.156 354.528 459.637 354.19C460.118 353.852 460.712 353.715 461.293 353.809C461.579 353.843 461.855 353.934 462.105 354.077C462.355 354.219 462.573 354.411 462.748 354.64C462.922 354.869 463.049 355.131 463.121 355.41C463.192 355.689 463.206 355.98 463.163 356.265Z" fill="#263238"/>
<path d="M464.911 353.732C464.573 353.963 463.148 352.382 460.771 351.921C458.395 351.461 456.401 352.29 456.172 351.921C455.942 351.553 456.463 351.292 457.337 350.893C458.506 350.39 459.8 350.256 461.047 350.509C462.287 350.75 463.416 351.386 464.267 352.32C464.926 353.026 465.064 353.625 464.911 353.732Z" fill="#263238"/>
<path d="M439.675 352.412C439.563 352.988 439.231 353.498 438.75 353.833C438.27 354.168 437.677 354.303 437.099 354.208C436.814 354.174 436.539 354.084 436.289 353.942C436.04 353.801 435.821 353.611 435.645 353.383C435.47 353.156 435.341 352.897 435.267 352.619C435.193 352.342 435.174 352.052 435.213 351.768C435.321 351.189 435.652 350.676 436.133 350.337C436.614 349.999 437.208 349.862 437.789 349.957C438.076 349.988 438.354 350.078 438.606 350.22C438.857 350.362 439.078 350.553 439.254 350.783C439.43 351.012 439.558 351.275 439.63 351.555C439.703 351.835 439.718 352.126 439.675 352.412Z" fill="#263238"/>
<path d="M441.438 349.496C441.101 349.726 439.675 348.161 437.298 347.685C434.922 347.209 432.929 348.053 432.699 347.685C432.469 347.317 432.99 347.071 433.864 346.657C435.033 346.151 436.329 346.022 437.574 346.288C438.818 346.522 439.953 347.152 440.809 348.084C441.453 348.821 441.561 349.389 441.438 349.496Z" fill="#263238"/>
<path d="M446.543 368.882C447.872 368.717 449.216 368.717 450.545 368.882C451.174 368.882 451.772 368.882 451.956 368.544C452.147 367.929 452.147 367.271 451.956 366.656C451.68 365.121 451.388 363.402 451.082 361.668C449.901 354.577 449.181 348.79 449.457 348.744C449.732 348.698 450.99 354.408 452.109 361.514C452.385 363.249 452.661 364.922 452.906 366.503C453.146 367.315 453.086 368.187 452.738 368.959C452.609 369.155 452.437 369.32 452.235 369.44C452.033 369.559 451.806 369.631 451.572 369.649C451.221 369.699 450.865 369.699 450.514 369.649C449.163 369.565 447.829 369.307 446.543 368.882Z" fill="#263238"/>
<path d="M439.214 369.127C439.613 369.127 439.092 371.767 440.932 374.054C442.771 376.341 445.531 376.587 445.531 376.955C445.531 377.324 444.826 377.339 443.661 377.14C442.141 376.853 440.769 376.044 439.782 374.853C438.847 373.707 438.391 372.244 438.509 370.77C438.632 369.665 439.046 369.081 439.214 369.127Z" fill="#263238"/>
<path d="M443.906 340.287C443.554 340.885 441.239 340.103 438.372 339.888C435.505 339.673 433.113 339.98 432.852 339.32C432.745 339.013 433.266 338.476 434.293 338.03C435.656 337.491 437.128 337.286 438.586 337.432C440.052 337.544 441.47 338.002 442.726 338.767C443.661 339.381 444.075 339.995 443.906 340.287Z" fill="#263238"/>
<path d="M465.402 346.657C464.88 347.117 463.362 346.227 461.385 345.812C459.407 345.398 457.674 345.444 457.414 344.799C457.291 344.492 457.659 344.001 458.502 343.633C459.602 343.207 460.805 343.127 461.952 343.403C463.103 343.659 464.147 344.265 464.942 345.137C465.524 345.828 465.647 346.442 465.402 346.657Z" fill="#263238"/>
<path d="M414.622 352.612C414.377 352.443 404.611 347.332 402.832 357.984C401.054 368.636 412.123 368.237 412.185 367.93C412.246 367.623 414.622 352.612 414.622 352.612Z" fill="#FFBE9D"/>
<path d="M409.609 363.356C409.609 363.356 409.409 363.448 409.072 363.54C408.838 363.601 408.594 363.614 408.354 363.58C408.115 363.545 407.885 363.464 407.677 363.341C407.056 362.793 406.594 362.087 406.341 361.298C406.087 360.509 406.051 359.667 406.235 358.859C406.36 357.943 406.691 357.066 407.201 356.296C407.351 355.976 407.578 355.7 407.862 355.491C408.146 355.282 408.478 355.147 408.827 355.099C409.049 355.079 409.271 355.137 409.456 355.263C409.64 355.389 409.776 355.575 409.839 355.789C409.93 356.112 409.839 356.311 409.839 356.342C409.839 356.372 410.099 356.204 410.084 355.743C410.064 355.471 409.957 355.212 409.777 355.006C409.515 354.744 409.166 354.586 408.796 354.561C408.344 354.574 407.903 354.704 407.517 354.938C407.13 355.172 406.81 355.502 406.588 355.897C405.976 356.739 405.581 357.72 405.438 358.752C405.162 360.916 405.913 363.111 407.385 363.817C407.658 363.949 407.957 364.017 408.259 364.017C408.562 364.017 408.861 363.949 409.133 363.817C409.547 363.602 409.639 363.372 409.609 363.356Z" fill="#EB996E"/>
<path d="M473.666 344.231C470.062 344.423 466.464 343.756 463.167 342.286C459.87 340.816 456.969 338.584 454.7 335.774C451.634 331.829 449.594 326.657 445.164 324.247C443.637 323.497 441.976 323.058 440.279 322.955C438.581 322.852 436.88 323.088 435.274 323.648C432.073 324.787 429.14 326.574 426.658 328.898C428.068 337.37 424.312 345.782 420.648 353.456C420.328 354.363 419.719 355.14 418.915 355.666C417.474 356.372 415.757 355.252 414.883 353.886C413.656 351.591 413.123 348.988 413.35 346.396C413.382 340.499 414.581 334.667 416.876 329.235C419.207 323.793 423.082 319.155 428.022 315.897C434.373 312.029 441.979 310.79 449.227 312.444C456.435 314.113 462.933 318.018 467.794 323.602C470.168 326.072 471.891 329.094 472.807 332.397" fill="#263238"/>
<path d="M44.5852 594.251C44.6595 594.029 44.7518 593.813 44.8612 593.606L45.7198 591.749C46.78 589.354 47.6366 586.874 48.2802 584.335C49.9668 577.735 50.5494 567.651 48.0503 555.663C46.7076 549.138 44.9355 542.708 42.7454 536.416C40.4916 529.586 37.8852 522.326 35.754 514.498C33.3499 506.317 32.187 497.821 32.3043 489.295C32.6263 480.377 35.2634 471.474 38.1612 462.618C41.0589 453.762 44.0486 445.074 44.9532 436.356C45.943 427.961 44.258 419.468 40.139 412.089C36.2907 405.013 31.4764 398.951 27.8734 392.688C24.4963 386.875 22.0055 380.589 20.4834 374.039C18.3116 364.543 18.1549 354.697 20.0234 345.137C20.7108 341.643 21.7378 338.224 23.0898 334.93C23.0507 335.159 22.9943 335.385 22.9212 335.605L22.3079 337.57C18.6945 349.357 18.308 361.898 21.1887 373.886C22.7305 380.359 25.2263 386.567 28.594 392.304C32.197 398.444 37.0419 404.584 40.9516 411.69C45.176 419.206 46.9149 427.867 45.9191 436.433C45.0145 445.304 41.9941 454.038 39.1117 462.894C36.2293 471.751 33.6076 480.561 33.2856 489.325C33.1511 497.761 34.283 506.168 36.6433 514.267C38.7438 522.065 41.3349 529.325 43.5427 536.17C45.7106 542.505 47.4571 548.975 48.7709 555.541C51.2087 567.605 50.5034 577.797 48.6942 584.428C48.0215 586.975 47.1077 589.452 45.9651 591.826C45.5665 592.608 45.2445 593.207 45.0145 593.652C44.9008 593.871 44.7562 594.073 44.5852 594.251Z" fill="#263238"/>
<path d="M32.7642 398.874C32.7642 398.874 25.4202 375.39 38.5903 361.637C38.6924 361.527 38.8231 361.446 38.9679 361.406C39.1127 361.365 39.266 361.365 39.4106 361.407C39.5553 361.448 39.6856 361.529 39.7871 361.64C39.8886 361.751 39.9573 361.888 39.9855 362.036C40.6908 365.92 41.5647 377.723 32.7642 398.874Z" fill="url(#paint4_linear)"/>
<path d="M37.1646 369.45C37.1404 370.911 36.971 372.366 36.6587 373.794C36.1834 376.771 35.6161 380.286 34.9875 384.154L33.347 394.469C33.2264 395.918 32.9645 397.352 32.5651 398.751C32.4407 397.298 32.487 395.835 32.703 394.392C32.9484 391.706 33.4236 388.007 34.0829 383.955C34.7422 379.902 35.4475 376.28 36.0301 373.625C36.2543 372.196 36.6348 370.796 37.1646 369.45Z" fill="#263238"/>
<path d="M41.396 454.33C41.396 454.33 45.8883 430.14 63.9493 424.138C64.0913 424.094 64.2424 424.089 64.387 424.124C64.5315 424.159 64.664 424.232 64.7706 424.335C64.8773 424.439 64.9541 424.569 64.993 424.713C65.0319 424.856 65.0315 425.008 64.9919 425.151C63.7807 428.85 59.0431 439.702 41.396 454.33Z" fill="url(#paint5_linear)"/>
<path d="M59.0124 430.324C58.3142 431.607 57.4872 432.816 56.544 433.931L50.2272 442.311L43.9411 450.692C43.159 451.921 42.255 453.068 41.2427 454.115C41.8114 452.77 42.537 451.498 43.4045 450.324C44.9377 448.067 47.0075 445.013 49.5373 441.743C52.067 438.474 54.3515 435.604 56.084 433.532C56.9382 432.357 57.9203 431.281 59.0124 430.324Z" fill="#263238"/>
<path d="M36.5052 514.973C36.5052 514.973 33.7301 490.522 49.3227 479.533C49.4441 479.445 49.5873 479.393 49.7365 479.381C49.8857 479.37 50.0351 479.4 50.1683 479.468C50.3015 479.537 50.4133 479.64 50.4913 479.768C50.5694 479.896 50.6106 480.043 50.6106 480.193C50.5953 484.137 49.1694 495.91 36.5052 514.973Z" fill="url(#paint6_linear)"/>
<path d="M46.4248 486.946C46.1332 488.375 45.6912 489.77 45.1062 491.106C44.0636 493.945 42.8524 497.245 41.4879 500.96L37.9155 510.814C37.5377 512.211 37.0242 513.569 36.3823 514.866C36.5441 513.417 36.8681 511.991 37.3482 510.614C38.0995 508.02 39.2647 504.475 40.6906 500.637C42.1165 496.8 43.5117 493.331 44.5696 490.86C45.0349 489.488 45.6574 488.175 46.4248 486.946Z" fill="#263238"/>
<path d="M50.1048 576.047C50.1048 576.047 48.2496 551.489 64.1795 541.082C64.304 540.996 64.45 540.947 64.601 540.94C64.7519 540.932 64.902 540.967 65.0342 541.041C65.1664 541.114 65.2755 541.223 65.3494 541.355C65.4232 541.487 65.4588 541.637 65.4521 541.788C65.2528 545.717 63.4436 557.429 50.1048 576.047Z" fill="url(#paint7_linear)"/>
<path d="M61.021 548.373C60.6804 549.791 60.1923 551.17 59.5645 552.486C58.4146 555.28 57.0807 558.626 55.5935 562.202L51.6532 571.918C51.2073 573.304 50.6324 574.646 49.936 575.924C50.1421 574.478 50.5178 573.061 51.0553 571.703C51.8985 569.14 53.1864 565.656 54.7503 561.849C56.3141 558.043 57.8167 554.65 58.9666 552.225C59.5139 550.872 60.2026 549.581 61.021 548.373Z" fill="#263238"/>
<path d="M22.2158 378.229C22.2158 378.229 0.429113 366.84 -0.000181608 347.808C-0.00686544 347.657 0.0287038 347.507 0.102528 347.374C0.176352 347.242 0.285504 347.134 0.417714 347.06C0.549925 346.987 0.699953 346.952 0.850933 346.959C1.00191 346.967 1.14786 347.016 1.27237 347.102C4.50741 349.343 13.4766 357.063 22.2158 378.229Z" fill="url(#paint8_linear)"/>
<path d="M4.59961 354.346C5.62279 355.382 6.53253 356.525 7.31337 357.754L13.4462 366.257L19.5789 374.745C20.5214 375.853 21.3533 377.051 22.0627 378.322C20.9416 377.387 19.9377 376.32 19.073 375.144C17.3405 373.072 15.0713 370.125 12.6642 366.794C10.2571 363.464 8.18729 360.379 6.73075 358.122C5.88545 356.945 5.17085 355.679 4.59961 354.346Z" fill="#263238"/>
<path d="M45.6122 428.681C45.6122 428.681 23.1815 418.628 21.587 399.657C21.5711 399.506 21.5975 399.354 21.6631 399.218C21.7287 399.082 21.8309 398.966 21.9583 398.885C22.0857 398.804 22.2332 398.76 22.3843 398.758C22.5354 398.756 22.6841 398.796 22.8136 398.874C26.1866 400.915 35.6158 408.083 45.6122 428.681Z" fill="url(#paint9_linear)"/>
<path d="M26.5088 405.904C27.5854 406.883 28.5613 407.968 29.4219 409.142L36.0759 417.262L42.7453 425.351C43.7492 426.401 44.6479 427.548 45.4284 428.774C44.2493 427.884 43.1834 426.853 42.2547 425.704C40.3995 423.754 37.9618 420.946 35.3553 417.768C32.7489 414.591 30.4951 411.629 28.9159 409.465C27.9798 408.374 27.1722 407.179 26.5088 405.904Z" fill="#263238"/>
<path d="M32.7032 485.028C32.7032 485.028 17.3712 465.857 24.5313 448.19C24.5863 448.05 24.6788 447.929 24.7985 447.839C24.9182 447.749 25.0605 447.693 25.2096 447.679C25.3587 447.665 25.5089 447.692 25.6435 447.758C25.7782 447.824 25.892 447.925 25.9725 448.052C28.0423 451.367 33.1785 462.004 32.7032 485.028Z" fill="url(#paint10_linear)"/>
<path d="M26.0643 455.957C26.5783 457.322 26.9532 458.736 27.1835 460.178C27.8274 463.14 28.5787 466.609 29.422 470.431C30.2652 474.253 30.9552 477.721 31.6758 480.684C32.0844 482.103 32.3615 483.557 32.5037 485.028C31.8194 483.727 31.3042 482.345 30.9705 480.914C30.2039 478.335 29.2993 474.774 28.4407 470.707C27.5821 466.64 26.9075 463.032 26.4782 460.377C26.1764 458.924 26.0376 457.441 26.0643 455.957Z" fill="#263238"/>
<path d="M47.9735 551.166C47.9735 551.166 25.6962 540.744 24.439 521.742C24.4273 521.592 24.4576 521.442 24.5264 521.308C24.5951 521.174 24.6998 521.061 24.8285 520.983C24.9573 520.905 25.1052 520.865 25.2557 520.866C25.4061 520.867 25.5533 520.91 25.6808 520.99C29.0079 523.078 38.3297 530.399 47.9735 551.166Z" fill="url(#paint11_linear)"/>
<path d="M29.2378 528.081C30.3023 529.076 31.2629 530.177 32.1049 531.366L38.621 539.593L45.1524 547.79C46.1344 548.864 47.0171 550.025 47.7895 551.258C46.6231 550.364 45.5679 549.334 44.6464 548.189C42.8372 546.193 40.4301 543.354 37.9003 540.13C35.3706 536.907 33.1321 533.991 31.5836 531.734C30.6784 530.601 29.8924 529.377 29.2378 528.081Z" fill="#263238"/>
<path d="M92.3288 454.406C92.3521 454.585 92.3521 454.765 92.3288 454.944C92.3288 455.373 92.3288 455.895 92.3288 456.478C92.3288 458.013 92.1755 459.947 92.0682 462.449C91.7769 467.683 91.3782 475.005 90.9029 483.754C89.3698 492.671 84.7702 502.541 78.6374 512.119C74.1758 519.179 69.4382 525.595 65.4672 531.566C61.8081 536.796 58.5141 542.273 55.6088 547.958C53.7038 551.806 52.1638 555.825 51.0092 559.961C50.6105 561.496 50.3192 562.586 50.1506 563.369C50.08 563.772 49.9722 564.167 49.8286 564.551C49.8332 564.138 49.8795 563.726 49.9666 563.323C50.0739 562.525 50.3192 561.373 50.6565 559.869C51.7049 555.669 53.174 551.586 55.0415 547.682C57.8873 541.934 61.1516 536.404 64.8079 531.136C68.8096 525.119 73.4705 518.703 77.9168 511.673C83.9729 502.142 88.4652 492.41 90.1823 483.662C90.7956 474.913 91.3016 467.606 91.7155 462.372C91.9149 459.886 92.0835 457.891 92.1908 456.417C92.2675 455.788 92.3135 455.281 92.3595 454.882C92.3272 454.726 92.3169 454.566 92.3288 454.406Z" fill="#263238"/>
<path d="M79.0666 510.384C79.0666 510.384 88.4958 487.652 76.6595 472.748C76.5676 472.629 76.4442 472.537 76.3033 472.484C76.1624 472.431 76.0094 472.418 75.8615 472.446C75.7135 472.475 75.5765 472.544 75.4656 472.646C75.3548 472.749 75.2744 472.879 75.2336 473.025C74.1604 476.831 72.2133 488.527 79.0666 510.384Z" fill="#E8505B"/>
<path d="M77.3493 480.684C77.7559 482.085 78.0078 483.526 78.1006 484.982C78.4379 487.652 78.8059 491.351 79.0972 495.45C79.3885 499.548 79.5265 503.262 79.5265 505.964C79.6197 507.422 79.5321 508.886 79.2658 510.323C78.9988 508.89 78.8705 507.436 78.8825 505.979C78.6832 502.909 78.4379 499.425 78.1773 495.511C77.9166 491.597 77.656 488.067 77.4566 485.043C77.278 483.597 77.2421 482.137 77.3493 480.684Z" fill="#263238"/>
<g opacity="0.3">
<path opacity="0.3" d="M79.0666 510.384C79.0666 510.384 88.4958 487.652 76.6595 472.748C76.5676 472.629 76.4442 472.537 76.3033 472.484C76.1624 472.431 76.0094 472.418 75.8615 472.446C75.7135 472.475 75.5765 472.544 75.4656 472.646C75.3548 472.749 75.2744 472.879 75.2336 473.025C74.1604 476.831 72.2133 488.527 79.0666 510.384Z" fill="black"/>
</g>
<path d="M49.8596 565.149C49.8596 565.149 57.4183 541.727 44.3861 527.851C44.2851 527.741 44.1556 527.66 44.0118 527.619C43.868 527.577 43.7155 527.576 43.5713 527.616C43.427 527.655 43.2964 527.734 43.194 527.843C43.0916 527.953 43.0213 528.088 42.9909 528.235C42.2396 532.118 41.2584 543.922 49.8596 565.149Z" fill="#E8505B"/>
<path d="M45.7349 535.679C46.2575 537.04 46.6227 538.456 46.8234 539.9C47.3754 542.54 48.05 546.193 48.6786 550.245C49.3072 554.297 49.7365 558.012 49.9512 560.698C50.1601 562.142 50.191 563.606 50.0431 565.057C49.6658 563.65 49.4195 562.212 49.3072 560.759C48.8626 557.782 48.3413 554.267 47.774 550.383C47.2067 546.5 46.6548 543.001 46.2408 540.008C45.9308 538.585 45.7614 537.135 45.7349 535.679Z" fill="#263238"/>
<g opacity="0.3">
<path opacity="0.3" d="M49.8596 565.149C49.8596 565.149 57.4183 541.727 44.3861 527.851C44.2851 527.741 44.1556 527.66 44.0118 527.619C43.868 527.577 43.7155 527.576 43.5713 527.616C43.427 527.655 43.2964 527.734 43.194 527.843C43.0916 527.953 43.0213 528.088 42.9909 528.235C42.2396 532.118 41.2584 543.922 49.8596 565.149Z" fill="black"/>
</g>
<path d="M91.0718 482.602C91.0718 482.602 111.218 468.481 109.179 449.556C109.166 449.406 109.111 449.262 109.021 449.141C108.931 449.02 108.81 448.927 108.67 448.871C108.53 448.815 108.377 448.8 108.229 448.826C108.08 448.852 107.942 448.919 107.83 449.019C104.917 451.659 97.0052 460.469 91.0718 482.602Z" fill="#E8505B"/>
<g opacity="0.3">
<path opacity="0.3" d="M91.0718 482.602C91.0718 482.602 111.218 468.481 109.179 449.556C109.166 449.406 109.111 449.262 109.021 449.141C108.931 449.02 108.81 448.927 108.67 448.871C108.53 448.815 108.377 448.8 108.229 448.826C108.08 448.852 107.942 448.919 107.83 449.019C104.917 451.659 97.0052 460.469 91.0718 482.602Z" fill="black"/>
</g>
<path d="M105.545 456.617C105.137 458.019 104.577 459.373 103.874 460.653C102.724 463.078 101.053 466.409 99.1056 470.016C97.1585 473.623 95.288 476.847 93.8314 479.118C93.1269 480.401 92.267 481.592 91.271 482.664C91.824 481.317 92.4962 480.023 93.2795 478.796L98.293 469.586L103.291 460.377C103.915 459.051 104.67 457.791 105.545 456.617Z" fill="#263238"/>
<path d="M57.9702 541.926C57.9702 541.926 82.2714 538.135 88.7721 520.238C88.8264 520.097 88.8402 519.944 88.8122 519.795C88.7842 519.646 88.7154 519.509 88.6134 519.397C88.5115 519.285 88.3806 519.205 88.2353 519.163C88.09 519.122 87.9361 519.122 87.7909 519.164C84.0039 520.33 73.0262 524.689 57.9702 541.926Z" fill="#E8505B"/>
<g opacity="0.3">
<path opacity="0.3" d="M57.9702 541.926C57.9702 541.926 82.2714 538.135 88.7721 520.238C88.8264 520.097 88.8402 519.944 88.8122 519.795C88.7842 519.646 88.7154 519.509 88.6134 519.397C88.5115 519.285 88.3806 519.205 88.2353 519.163C88.09 519.122 87.9361 519.122 87.7909 519.164C84.0039 520.33 73.0262 524.689 57.9702 541.926Z" fill="black"/>
</g>
<path d="M82.394 524.935C81.4133 526.018 80.3125 526.986 79.113 527.821C77.0125 529.494 74.0534 531.75 70.7111 534.129C67.3687 536.508 64.2717 538.58 61.9872 539.977C60.7882 540.814 59.4905 541.5 58.1235 542.018C59.2109 541.058 60.3807 540.195 61.6192 539.44L70.1898 533.3L78.7297 527.161C79.8739 526.298 81.1015 525.553 82.394 524.935Z" fill="#263238"/>
<path d="M34.8036 586.684L27.7202 634.419H71.8763L66.1574 586.684H34.8036Z" fill="#455A64"/>
<path d="M67.9203 601.48C61.9934 601.935 56.0471 602.089 50.1046 601.941C44.1672 602.089 38.2261 601.935 32.3042 601.48C32.3042 601.219 40.2768 601.02 50.1046 601.02C59.9324 601.02 67.9203 601.219 67.9203 601.48Z" fill="#263238"/>
<path d="M68.7943 605.271C68.7943 605.532 60.561 605.732 50.3959 605.732C40.2308 605.732 31.9976 605.532 31.9976 605.271C31.9976 605.01 40.2308 604.811 50.3959 604.811C60.561 604.811 68.7943 605.026 68.7943 605.271Z" fill="#263238"/>
</g>
<defs>
<linearGradient id="paint0_linear" x1="307.799" y1="155.071" x2="307.799" y2="421.604" gradientUnits="userSpaceOnUse">
<stop stop-color="#F11118" stop-opacity="0.9"/>
<stop offset="1" stop-color="#E31A20"/>
</linearGradient>
<linearGradient id="paint1_linear" x1="298.428" y1="497.735" x2="298.428" y2="628.678" gradientUnits="userSpaceOnUse">
<stop stop-color="#F11118" stop-opacity="0.9"/>
<stop offset="1" stop-color="#E31A20"/>
</linearGradient>
<linearGradient id="paint2_linear" x1="447.475" y1="401.314" x2="447.475" y2="566.991" gradientUnits="userSpaceOnUse">
<stop stop-color="#F11118" stop-opacity="0.9"/>
<stop offset="1" stop-color="#E31A20"/>
</linearGradient>
<linearGradient id="paint3_linear" x1="485.204" y1="594.005" x2="485.204" y2="635.924" gradientUnits="userSpaceOnUse">
<stop stop-color="#F11118" stop-opacity="0.9"/>
<stop offset="1" stop-color="#E31A20"/>
</linearGradient>
<linearGradient id="paint4_linear" x1="35.5622" y1="361.375" x2="35.5622" y2="398.874" gradientUnits="userSpaceOnUse">
<stop stop-color="#F11118" stop-opacity="0.9"/>
<stop offset="1" stop-color="#E31A20"/>
</linearGradient>
<linearGradient id="paint5_linear" x1="53.209" y1="424.101" x2="53.209" y2="454.33" gradientUnits="userSpaceOnUse">
<stop stop-color="#F11118" stop-opacity="0.9"/>
<stop offset="1" stop-color="#E31A20"/>
</linearGradient>
<linearGradient id="paint6_linear" x1="43.4623" y1="479.379" x2="43.4623" y2="514.973" gradientUnits="userSpaceOnUse">
<stop stop-color="#F11118" stop-opacity="0.9"/>
<stop offset="1" stop-color="#E31A20"/>
</linearGradient>
<linearGradient id="paint7_linear" x1="57.7457" y1="540.939" x2="57.7457" y2="576.047" gradientUnits="userSpaceOnUse">
<stop stop-color="#F11118" stop-opacity="0.9"/>
<stop offset="1" stop-color="#E31A20"/>
</linearGradient>
<linearGradient id="paint8_linear" x1="11.1074" y1="346.958" x2="11.1074" y2="378.229" gradientUnits="userSpaceOnUse">
<stop stop-color="#F11118" stop-opacity="0.9"/>
<stop offset="1" stop-color="#E31A20"/>
</linearGradient>
<linearGradient id="paint9_linear" x1="33.5974" y1="398.758" x2="33.5974" y2="428.681" gradientUnits="userSpaceOnUse">
<stop stop-color="#F11118" stop-opacity="0.9"/>
<stop offset="1" stop-color="#E31A20"/>
</linearGradient>
<linearGradient id="paint10_linear" x1="27.6803" y1="447.675" x2="27.6803" y2="485.028" gradientUnits="userSpaceOnUse">
<stop stop-color="#F11118" stop-opacity="0.9"/>
<stop offset="1" stop-color="#E31A20"/>
</linearGradient>
<linearGradient id="paint11_linear" x1="36.205" y1="520.866" x2="36.205" y2="551.166" gradientUnits="userSpaceOnUse">
<stop stop-color="#F11118" stop-opacity="0.9"/>
<stop offset="1" stop-color="#E31A20"/>
</linearGradient>
<clipPath id="clip0">
<rect width="663" height="636" fill="white"/>
</clipPath>
</defs>
</svg>
