<svg width="40" height="40" viewBox="0 0 40 40" fill="none" xmlns="http://www.w3.org/2000/svg">
<g clip-path="url(#clip0)">
<path d="M13.2542 27.7885L19.7671 34.3014L26.28 27.7885" stroke="white" stroke-width="3.03509" stroke-linecap="round" stroke-linejoin="round"/>
<path d="M19.7673 19.6472V34.3013" stroke="white" stroke-width="3.03509" stroke-linecap="round" stroke-linejoin="round"/>
<path d="M34.2257 29.5632C35.6413 28.5677 36.7028 27.1471 37.2563 25.5075C37.8098 23.8678 37.8264 22.0945 37.3037 20.4448C36.781 18.795 35.7463 17.3548 34.3496 16.333C32.9529 15.3113 31.2669 14.7612 29.5364 14.7625H27.4848C26.9951 12.854 26.0788 11.0815 24.8049 9.57833C23.5311 8.0752 21.9328 6.88064 20.1304 6.08459C18.3281 5.28853 16.3686 4.91173 14.3995 4.98254C12.4305 5.05335 10.5032 5.56993 8.76264 6.49339C7.02212 7.41685 5.51378 8.72313 4.35116 10.3139C3.18854 11.9046 2.40194 13.7384 2.05058 15.6772C1.69922 17.6159 1.79226 19.6091 2.32269 21.5067C2.85312 23.4043 3.80712 25.1568 5.11287 26.6323" stroke="white" stroke-width="3.03509" stroke-linecap="round" stroke-linejoin="round"/>
</g>
<defs>
<clipPath id="clip0">
<rect width="39.0776" height="39.0776" fill="white" transform="translate(0.228271 0.108521)"/>
</clipPath>
</defs>
</svg>
