<svg width="40" height="40" viewBox="0 0 40 40" fill="none" xmlns="http://www.w3.org/2000/svg">
<g opacity="0.15">
<path d="M31.8357 5.77174H9.04041C7.24191 5.77174 5.78394 7.22972 5.78394 9.02821V31.8235C5.78394 33.622 7.24191 35.08 9.04041 35.08H31.8357C33.6342 35.08 35.0922 33.622 35.0922 31.8235V9.02821C35.0922 7.22972 33.6342 5.77174 31.8357 5.77174Z" stroke="black" stroke-width="3.03509" stroke-linecap="round" stroke-linejoin="round"/>
<path d="M14.7392 17.1694C16.0881 17.1694 17.1816 16.0759 17.1816 14.727C17.1816 13.3781 16.0881 12.2847 14.7392 12.2847C13.3904 12.2847 12.2969 13.3781 12.2969 14.727C12.2969 16.0759 13.3904 17.1694 14.7392 17.1694Z" stroke="black" stroke-width="3.03509" stroke-linecap="round" stroke-linejoin="round"/>
<path d="M35.0923 25.3105L26.9511 17.1694L9.04053 35.0799" stroke="black" stroke-width="3.03509" stroke-linecap="round" stroke-linejoin="round"/>
</g>
</svg>
