<svg width="40" height="40" viewBox="0 0 40 40" fill="none" xmlns="http://www.w3.org/2000/svg">
<g opacity="0.15">
<path d="M34.193 19.5114L20.9141 32.5796C19.2873 34.1806 17.081 35.08 14.7804 35.08C12.4798 35.08 10.2734 34.1806 8.64663 32.5796C7.01987 30.9787 6.10596 28.8073 6.10596 26.5432C6.10596 24.2791 7.01987 22.1078 8.64663 20.5068L21.9256 7.43865C23.0101 6.37135 24.481 5.77174 26.0147 5.77174C27.5484 5.77174 29.0194 6.37135 30.1039 7.43865C31.1884 8.50595 31.7976 9.95352 31.7976 11.4629C31.7976 12.9723 31.1884 14.4199 30.1039 15.4872L16.8105 28.5554C16.2682 29.089 15.5328 29.3888 14.7659 29.3888C13.9991 29.3888 13.2636 29.089 12.7213 28.5554C12.1791 28.0217 11.8744 27.2979 11.8744 26.5432C11.8744 25.7885 12.1791 25.0647 12.7213 24.5311L24.9888 12.4725" stroke="black" stroke-width="3.03509" stroke-linecap="round" stroke-linejoin="round"/>
</g>
</svg>
