<svg width="25" height="25" viewBox="0 0 25 25" fill="none" xmlns="http://www.w3.org/2000/svg">
<path d="M6.39241 9.21627C6.51914 9.34669 6.65681 9.4654 6.80376 9.57117L6.24822 9.5728L6.31215 10.1283L7.74443 22.5735L7.79553 23.0175L8.24246 23.0163L9.52573 23.013L10.054 23.0116L10.0236 22.4842L9.30859 10.078C9.65196 10.0005 9.97393 9.86637 10.2641 9.68632C10.4163 9.96264 10.6099 10.2164 10.84 10.4409L11.5366 22.5334L11.5638 23.0059L12.0371 23.0046L12.9671 23.0021L13.4379 23.0008L13.4649 22.5308L14.1161 11.2189C14.7328 11.0245 15.2846 10.6553 15.6941 10.1332L14.9846 22.4633L14.954 22.9941L15.4857 22.992L16.7706 22.987L17.2159 22.9853L17.2656 22.5428L18.6627 10.0901L18.7252 9.53266L18.2472 9.53408C18.3757 9.43763 18.4967 9.33111 18.6092 9.21536C18.7616 9.24106 18.9168 9.2544 19.0732 9.2544C19.3786 9.2544 19.6675 9.20164 19.9355 9.11223C20.126 9.46338 20.2076 9.86111 20.1598 10.2554L20.1593 10.2599L18.7597 22.7416C18.7597 22.7417 18.7597 22.7418 18.7597 22.7419C18.6465 23.745 17.8028 24.5 16.7938 24.5H8.20348C7.19562 24.5 6.34991 23.7444 6.23763 22.7419L6.23762 22.7419L4.83804 10.2595C4.83804 10.2595 4.83803 10.2594 4.83802 10.2593C4.79401 9.86285 4.87648 9.46373 5.06629 9.11305C5.33498 9.20295 5.62403 9.25524 5.92908 9.25524C6.08591 9.25524 6.24061 9.24191 6.39241 9.21627Z" stroke="#E31A20"/>
<path d="M9.86897 2.97308C9.63924 2.67913 9.35484 2.43051 9.03106 2.24193L9.0133 2.06138C9.01114 2.03936 9.00854 2.01951 9.00649 2.00451L9.00363 1.98397L9.00152 1.96865C9.00047 1.96074 9 1.95627 8.99981 1.95432C9.00178 1.34146 9.49958 0.844879 10.1129 0.844879C10.3892 0.844879 10.6421 0.947494 10.8369 1.11896C10.3044 1.57837 9.94319 2.23251 9.86897 2.97308Z" stroke="#E31A20"/>
<path d="M15.8923 1.8318C15.9035 1.7605 15.9098 1.68762 15.9098 1.61309L15.8923 1.8318ZM15.1674 2.4881L15.5111 2.57509C15.3924 2.68127 15.2825 2.79688 15.1824 2.92059C15.1402 2.89054 15.0966 2.86133 15.0514 2.83319C14.5625 2.52642 13.9985 2.36456 13.4219 2.36456C12.8316 2.36456 12.2686 2.53047 11.7873 2.83219C11.9449 2.50019 12.2814 2.26955 12.6718 2.26469L12.6771 2.26498C12.6831 2.26523 12.6908 2.26544 12.6995 2.26544H13.2422L13.1978 1.7246C13.1959 1.70119 13.1934 1.68023 13.1914 1.66418L13.1885 1.64224L13.1863 1.62579C13.1851 1.61656 13.1846 1.61161 13.1844 1.60963C13.1863 0.996523 13.6843 0.5 14.2967 0.5C14.9123 0.5 15.4104 0.998716 15.4098 1.61262V1.61309C15.4098 1.72705 15.3861 1.84525 15.3418 1.97529L15.1674 2.4881ZM12.6511 2.2633L12.6514 2.26332L12.6511 2.2633Z" stroke="#E31A20"/>
<path d="M19.0284 4.43482C19.0278 4.43486 19.0279 4.43485 19.0284 4.43482L19.0284 4.43482ZM16.3821 8.31634C16.3761 8.31634 16.3701 8.31629 16.3641 8.31618C16.3962 7.83462 16.3257 7.34664 16.1407 6.88928C16.4899 6.23388 16.5915 5.48226 16.4212 4.75169L16.4212 4.75169L16.4202 4.74773C16.4052 4.68538 16.3861 4.63045 16.372 4.59145C16.4625 4.06429 16.9159 3.66789 17.4589 3.66843H17.4594C18.0738 3.66843 18.5704 4.16404 18.5734 4.77607C18.5731 4.77822 18.5726 4.7821 18.5718 4.78816L18.5695 4.80374L18.5664 4.82504C18.5642 4.84069 18.5613 4.86158 18.559 4.88493L18.505 5.43387H19.0566C19.0686 5.43387 19.0788 5.43348 19.0861 5.43311C19.6273 5.43992 20.0659 5.88179 20.0659 6.42558C20.0659 6.97362 19.6205 7.41813 19.0734 7.41813C18.8256 7.41813 18.5967 7.32254 18.4177 7.16348L17.8308 6.64199L17.6064 7.39438C17.4464 7.93113 16.9599 8.31634 16.3821 8.31634Z" stroke="#E31A20"/>
<path d="M7.39844 7.39355L7.17405 6.641L6.58711 7.16272C6.40715 7.32269 6.18073 7.41731 5.93235 7.41731C5.38563 7.41731 4.93966 6.97227 4.93896 6.42451C4.9391 5.88073 5.37686 5.43923 5.91857 5.43229C5.92598 5.43268 5.93589 5.43305 5.94742 5.43305H6.49901L6.44502 4.8841C6.44285 4.86209 6.44025 4.84224 6.4382 4.82724L6.43534 4.80669L6.43323 4.79137C6.43218 4.78346 6.43171 4.779 6.43152 4.77704C6.43349 4.16419 6.93129 3.6676 7.54461 3.6676C8.00868 3.6676 8.40673 3.95262 8.57296 4.35852C8.54899 4.38965 8.52412 4.42451 8.50024 4.46282C7.72435 5.70332 7.98775 7.304 9.05289 8.24031C8.91861 8.28908 8.77425 8.31552 8.62363 8.31552C8.04557 8.31552 7.55841 7.93003 7.39844 7.39355ZM5.89991 5.43104L5.90027 5.43106L5.89991 5.43104Z" stroke="#E31A20"/>
<path d="M14.4755 6.10159C14.405 6.21289 14.3129 6.31038 14.198 6.4031L13.7754 6.74408L14.15 7.13718C14.593 7.60203 14.6847 8.31648 14.3331 8.87969L14.3328 8.88014C14.0631 9.31316 13.5986 9.5519 13.1199 9.5519C12.8608 9.5519 12.6 9.48214 12.364 9.33433L12.3639 9.33427C11.8189 8.9931 11.5869 8.34163 11.7519 7.74292L11.9616 6.98196L11.184 7.11751C11.1233 7.1281 11.0584 7.13352 10.9911 7.13352C10.7901 7.13352 10.5916 7.08148 10.4131 6.97007C9.89232 6.64433 9.73393 5.95742 10.0592 5.43635L10.0592 5.43628C10.2693 5.09957 10.6308 4.91403 11.0037 4.91403C11.1995 4.91403 11.3967 4.96539 11.576 5.0732C11.5812 5.07694 11.5871 5.08104 11.5935 5.08537L12.0681 5.40172L12.3196 4.88991C12.3295 4.86984 12.3379 4.85126 12.3443 4.83713L12.3597 4.80283C12.3649 4.79149 12.3673 4.78692 12.3677 4.78617C12.3677 4.78609 12.3678 4.78606 12.3678 4.78606C12.3678 4.78605 12.3677 4.78609 12.3677 4.78616C12.3676 4.78639 12.3672 4.78695 12.3667 4.78775L14.4755 6.10159ZM12.1761 4.27356C12.1768 4.27408 12.1772 4.27438 12.1766 4.2739L12.1761 4.27356Z" stroke="#E31A20"/>
</svg>
