<svg width="27" height="27" viewBox="0 0 27 27" fill="none" xmlns="http://www.w3.org/2000/svg">
<path d="M20.2284 8.98963C22.0269 8.98963 23.4849 7.53165 23.4849 5.73316C23.4849 3.93466 22.0269 2.47668 20.2284 2.47668C18.4299 2.47668 16.9719 3.93466 16.9719 5.73316C16.9719 7.53165 18.4299 8.98963 20.2284 8.98963Z" fill="#E31A20" stroke="#E31A20" stroke-width="1.51754" stroke-linecap="round" stroke-linejoin="round"/>
<path d="M7.20227 16.588C9.00077 16.588 10.4587 15.13 10.4587 13.3315C10.4587 11.533 9.00077 10.0751 7.20227 10.0751C5.40377 10.0751 3.9458 11.533 3.9458 13.3315C3.9458 15.13 5.40377 16.588 7.20227 16.588Z" fill="#E31A20" stroke="#E31A20" stroke-width="1.51754" stroke-linecap="round" stroke-linejoin="round"/>
<path d="M20.2284 24.1864C22.0269 24.1864 23.4849 22.7284 23.4849 20.9299C23.4849 19.1314 22.0269 17.6735 20.2284 17.6735C18.4299 17.6735 16.9719 19.1314 16.9719 20.9299C16.9719 22.7284 18.4299 24.1864 20.2284 24.1864Z" fill="#E31A20" stroke="#E31A20" stroke-width="1.51754" stroke-linecap="round" stroke-linejoin="round"/>
<path d="M10.0139 14.9709L17.4278 19.2912" stroke="#E31A20" stroke-width="1.51754" stroke-linecap="round" stroke-linejoin="round"/>
<path d="M17.417 7.37244L10.0139 11.6927" stroke="#E31A20" stroke-width="1.51754" stroke-linecap="round" stroke-linejoin="round"/>
</svg>
