<svg width="23" height="23" viewBox="0 0 23 23" fill="none" xmlns="http://www.w3.org/2000/svg">
<path d="M21.2095 10.8879C21.2132 12.3206 20.8785 13.7339 20.2325 15.0127C19.4667 16.5452 18.2892 17.8341 16.8322 18.7352C15.3751 19.6362 13.696 20.1139 11.9828 20.1145C10.5501 20.1183 9.13678 19.7835 7.85795 19.1376L1.67065 21.2L3.73309 15.0127C3.08714 13.7339 2.75241 12.3206 2.75614 10.8879C2.75681 9.17469 3.23442 7.49554 4.1355 6.03849C5.03657 4.58143 6.32551 3.40402 7.85795 2.63814C9.13678 1.99219 10.5501 1.65746 11.9828 1.66119H12.5256C14.7881 1.78602 16.9251 2.741 18.5274 4.34329C20.1297 5.94558 21.0847 8.08258 21.2095 10.3451V10.8879Z" stroke="#E31A20" stroke-width="3.03509" stroke-linecap="round" stroke-linejoin="round"/>
</svg>
