<svg width="37" height="37" viewBox="0 0 37 37" fill="none" xmlns="http://www.w3.org/2000/svg">
<path d="M4.625 17.2386V19.7614C4.625 21.0386 3.58965 22.0739 2.3125 22.0739C1.03535 22.0739 0 21.0386 0 19.7614V17.2386C0 15.9615 1.03535 14.9261 2.3125 14.9261C3.58965 14.9261 4.625 15.9615 4.625 17.2386Z" fill="white"/>
<path d="M32.3759 17.3044C32.3753 17.2825 32.375 17.2605 32.375 17.2386C32.375 15.9615 33.4103 14.9261 34.6875 14.9261C35.9647 14.9261 37 15.9615 37 17.2386C37 17.2606 36.9997 17.2826 36.9991 17.3044H37V19.8271H36.9991C36.9644 21.0738 35.9427 22.0738 34.6875 22.0738C33.4323 22.0738 32.4107 21.0738 32.3759 19.8271H32.375V17.3043H32.3759V17.3044Z" fill="white"/>
<path d="M12.6136 24.8069V27.3296C12.6136 28.6067 11.5784 29.6421 10.3011 29.6421C9.02392 29.6421 7.98865 28.6067 7.98865 27.3296V24.8068C7.98865 23.5297 9.024 22.4943 10.3011 22.4943C11.5783 22.4943 12.6136 23.5297 12.6136 24.8068V24.8069ZM12.6136 9.67045V17.9219H12.6131C12.5852 19.1748 11.5607 20.1818 10.3011 20.1818C9.04156 20.1818 8.01719 19.1748 7.9893 17.9219H7.98865V9.67045C7.98865 8.3933 9.024 7.35795 10.3011 7.35795C11.5783 7.35795 12.6136 8.3933 12.6136 9.67045Z" fill="white"/>
<path d="M24.3864 12.1932C24.3864 13.4703 25.4216 14.5057 26.6989 14.5057C27.9761 14.5057 29.0114 13.4703 29.0114 12.1932V9.67045C29.0114 8.3933 27.976 7.35795 26.6989 7.35795C25.4217 7.35795 24.3864 8.3933 24.3864 9.67045V12.1932Z" fill="white"/>
<path d="M16.1875 4.83529C16.1875 6.11237 17.2228 7.14779 18.5 7.14779C19.7772 7.14779 20.8125 6.11237 20.8125 4.83529V2.3125C20.8125 1.03535 19.7772 0 18.5 0C17.2228 0 16.1875 1.03535 16.1875 2.3125V4.83529ZM16.1875 32.1647C16.1875 30.8876 17.2228 29.8522 18.5 29.8522C19.7772 29.8522 20.8125 30.8876 20.8125 32.1647V34.6875C20.8125 35.9646 19.7772 37 18.5 37C17.2228 37 16.1875 35.9646 16.1875 34.6875V32.1647Z" fill="white"/>
<path d="M24.3864 19.1307C24.3864 17.8535 25.4216 16.8182 26.6989 16.8182C27.9761 16.8182 29.0114 17.8535 29.0114 19.1307V27.3296C29.0114 28.6067 27.976 29.6421 26.6989 29.6421C25.4217 29.6421 24.3864 28.6067 24.3864 27.3296V19.1307Z" fill="white"/>
<path d="M20.8125 11.7728V25.2272C20.8125 26.5044 19.7772 27.5397 18.5 27.5397C17.2228 27.5397 16.1875 26.5044 16.1875 25.2272V11.7728C16.1875 10.4956 17.2228 9.46028 18.5 9.46028C19.7772 9.46028 20.8125 10.4956 20.8125 11.7728Z" fill="white"/>
</svg>
