<svg width="54" height="60" viewBox="0 0 54 60" fill="none" xmlns="http://www.w3.org/2000/svg">
<path d="M26.88 59.9099C41.7254 59.9099 53.76 46.614 53.76 30.2126C53.76 13.8113 41.7254 0.515381 26.88 0.515381C12.0346 0.515381 0 13.8113 0 30.2126C0 46.614 12.0346 59.9099 26.88 59.9099Z" fill="url(#paint0_linear)"/>
<path d="M36.2037 19.9115C35.847 19.5188 35.3152 19.3845 34.8409 19.5737L16.5476 26.7918C16.0549 26.9852 15.7139 27.4862 15.6825 28.0622C15.6512 28.6396 15.9334 29.181 16.4025 29.4408L22.3949 32.7496L30.0533 26.7066L24.5822 35.1691L27.5771 41.7896C27.8006 42.279 28.254 42.5865 28.7466 42.5865C28.774 42.5865 28.8002 42.585 28.8263 42.5836C29.349 42.5489 29.8024 42.1736 29.9788 41.6279L36.5121 21.4172C36.6807 20.8931 36.5604 20.3056 36.2037 19.9115Z" fill="white"/>
<defs>
<linearGradient id="paint0_linear" x1="26.88" y1="0.515381" x2="26.88" y2="59.9099" gradientUnits="userSpaceOnUse">
<stop stop-color="#F11118" stop-opacity="0.9"/>
<stop offset="1" stop-color="#E31A20"/>
</linearGradient>
</defs>
</svg>
