<svg width="124" height="37" viewBox="0 0 124 37" fill="none" xmlns="http://www.w3.org/2000/svg">
<path d="M18.5954 0C8.32564 0 0 8.28267 0 18.4997C0 28.7178 8.32564 37 18.5954 37C28.8655 37 37.1907 28.7178 37.1907 18.4997C37.1907 8.28333 28.8662 0 18.5954 0ZM27.1231 26.6818C26.7891 27.2268 26.0754 27.3976 25.5294 27.0655C21.1627 24.4104 15.6665 23.8106 9.19363 25.2817C8.56989 25.424 7.94814 25.0349 7.80604 24.4146C7.66325 23.7941 8.05251 23.1755 8.67781 23.0341C15.7613 21.423 21.8373 22.1165 26.7387 25.0961C27.2849 25.4297 27.4584 26.1384 27.1231 26.6818ZM29.3991 21.6453C28.9785 22.3241 28.0863 22.5371 27.4048 22.1202C22.4076 19.0641 14.7874 18.1789 8.87522 19.9643C8.10846 20.1947 7.29864 19.7648 7.06593 19.0034C6.835 18.2405 7.26734 17.4364 8.03275 17.2045C14.786 15.1659 23.1814 16.1534 28.9215 19.6626C29.6032 20.0801 29.8188 20.9679 29.3991 21.6453ZM29.5945 16.3999C23.6004 12.8584 13.7133 12.5328 7.99121 14.2606C7.07236 14.5378 6.10066 14.0218 5.82221 13.1076C5.54375 12.1931 6.06202 11.227 6.98154 10.9491C13.5501 8.9653 24.4695 9.34857 31.3696 13.4238C32.1961 13.9117 32.4672 14.9737 31.9773 15.7948C31.4888 16.617 30.4183 16.8881 29.5945 16.3999ZM50.5918 17.0785C47.3811 16.3168 46.8096 15.7822 46.8096 14.6589C46.8096 13.5976 47.8139 12.8834 49.3074 12.8834C50.7552 12.8834 52.1908 13.4257 53.6959 14.5422C53.7414 14.576 53.7985 14.5895 53.8546 14.5807C53.9108 14.5723 53.9606 14.5416 53.9934 14.4954L55.5611 12.2969C55.6255 12.2063 55.608 12.0815 55.5212 12.0123C53.7299 10.5824 51.7127 9.88716 49.355 9.88716C45.8883 9.88716 43.4668 11.9569 43.4668 14.9182C43.4668 18.0939 45.5557 19.2183 49.1654 20.0863C52.2377 20.7903 52.7562 21.3802 52.7562 22.4346C52.7562 23.603 51.7076 24.3293 50.0203 24.3293C48.1461 24.3293 46.6175 23.7013 44.9075 22.228C44.8651 22.1916 44.8069 22.175 44.7532 22.1781C44.6965 22.1827 44.6448 22.2088 44.6088 22.2519L42.8511 24.3331C42.7773 24.4195 42.7867 24.5485 42.872 24.6232C44.8615 26.3902 47.3086 27.3236 49.9492 27.3236C53.6848 27.3236 56.0987 25.293 56.0987 22.15C56.1054 19.4969 54.5089 18.0278 50.5985 17.0814L50.5918 17.0785ZM64.55 13.9283C62.9308 13.9283 61.6027 14.5628 60.5076 15.8628V14.3995C60.5076 14.284 60.4134 14.1899 60.2975 14.1899H57.4226C57.3065 14.1899 57.2125 14.284 57.2125 14.3995V30.6591C57.2125 30.7747 57.3065 30.8688 57.4226 30.8688H60.2975C60.4134 30.8688 60.5076 30.7747 60.5076 30.6591V25.5267C61.603 26.7496 62.9313 27.3472 64.55 27.3472C67.5586 27.3472 70.6043 25.0431 70.6043 20.6385C70.6088 16.2329 67.5622 13.9281 64.5534 13.9281L64.55 13.9283ZM67.2613 20.6385C67.2613 22.8815 65.8726 24.4466 63.8841 24.4466C61.9183 24.4466 60.4354 22.8103 60.4354 20.6385C60.4354 18.467 61.9183 16.8305 63.8841 16.8305C65.8404 16.8302 67.2613 18.4316 67.2613 20.6385ZM78.4106 13.9283C74.536 13.9283 71.5005 16.8965 71.5005 20.6865C71.5005 24.4351 74.5151 27.3722 78.3631 27.3722C82.2514 27.3722 85.2962 24.4139 85.2962 20.6385C85.2962 16.8762 82.2721 13.9283 78.4106 13.9283ZM78.4106 24.469C76.3497 24.469 74.796 22.8216 74.796 20.6374C74.796 18.444 76.296 16.8523 78.3631 16.8523C80.4373 16.8523 82.0014 18.4997 82.0014 20.6854C82.0014 22.8784 80.4912 24.469 78.4106 24.469ZM93.5701 14.1899H90.4065V10.9721C90.4065 10.8568 90.3128 10.7626 90.1967 10.7626H87.3222C87.2059 10.7626 87.1115 10.8568 87.1115 10.9721V14.1899H85.7292C85.6135 14.1899 85.5198 14.284 85.5198 14.3995V16.8576C85.5198 16.9729 85.6135 17.0673 85.7292 17.0673H87.1115V23.4276C87.1115 25.9979 88.3974 27.3011 90.9335 27.3011C91.9647 27.3011 92.8202 27.0892 93.6265 26.6343C93.692 26.5979 93.7326 26.5276 93.7326 26.453V24.1122C93.7326 24.0399 93.6949 23.9717 93.6327 23.9339C93.5701 23.8948 93.4922 23.8928 93.428 23.9244C92.8742 24.2017 92.3388 24.3296 91.7404 24.3296C90.818 24.3296 90.4065 23.9129 90.4065 22.9791V17.0684H93.5701C93.6862 17.0684 93.7797 16.9743 93.7797 16.8587V14.4009C93.7842 14.2853 93.6909 14.1912 93.5732 14.1912L93.5701 14.1899ZM104.593 14.2025V13.8073C104.593 12.6446 105.041 12.1261 106.046 12.1261C106.645 12.1261 107.127 12.2445 107.666 12.4235C107.732 12.4442 107.801 12.4338 107.855 12.3943C107.911 12.3547 107.942 12.2913 107.942 12.2242V9.81403C107.942 9.72191 107.883 9.6404 107.793 9.61322C107.224 9.44465 106.495 9.27168 105.404 9.27168C102.749 9.27168 101.345 10.7593 101.345 13.5722V14.1775H99.9639C99.848 14.1775 99.7529 14.2716 99.7529 14.3869V16.8576C99.7529 16.9729 99.848 17.0673 99.9639 17.0673H101.345V26.8778C101.345 26.9933 101.439 27.0874 101.555 27.0874H104.43C104.546 27.0874 104.64 26.9933 104.64 26.8778V17.0679H107.325L111.436 26.876C110.97 27.9066 110.511 28.1116 109.884 28.1116C109.377 28.1116 108.844 27.9611 108.299 27.6642C108.247 27.6362 108.187 27.6315 108.131 27.6485C108.076 27.6678 108.03 27.7084 108.007 27.7614L107.033 29.8881C106.986 29.9887 107.026 30.1067 107.123 30.1588C108.14 30.7069 109.059 30.9408 110.193 30.9408C112.316 30.9408 113.49 29.9571 114.524 27.3105L119.511 14.4888C119.537 14.4243 119.529 14.3514 119.489 14.2941C119.45 14.2374 119.386 14.2031 119.316 14.2031H116.323C116.234 14.2031 116.154 14.2599 116.124 14.3436L113.058 23.056L109.7 14.3379C109.67 14.2568 109.591 14.2031 109.504 14.2031L104.593 14.2025ZM98.2021 14.1899H95.3272C95.2111 14.1899 95.1165 14.284 95.1165 14.3995V26.8778C95.1165 26.9933 95.2111 27.0874 95.3272 27.0874H98.2021C98.318 27.0874 98.4128 26.9933 98.4128 26.8778V14.4004C98.4129 14.3728 98.4075 14.3455 98.3969 14.32C98.3863 14.2946 98.3708 14.2714 98.3512 14.2519C98.3316 14.2325 98.3083 14.217 98.2827 14.2065C98.2571 14.196 98.2298 14.1898 98.2021 14.1899ZM96.781 8.50823C95.6421 8.50823 94.7179 9.42545 94.7179 10.5585C94.7179 11.6922 95.6423 12.6106 96.781 12.6106C97.9195 12.6106 98.8427 11.6922 98.8427 10.5585C98.8427 9.42568 97.919 8.50823 96.7821 8.50823H96.781ZM121.966 18.2019C120.828 18.2019 119.943 17.2928 119.943 16.1889C119.943 15.085 120.84 14.1656 121.977 14.1656C123.115 14.1656 124 15.0744 124 16.1774C124 17.2813 123.103 18.2019 121.966 18.2019ZM121.977 14.3657C120.941 14.3657 120.157 15.1853 120.157 16.1889C120.157 17.1921 120.935 18.0006 121.967 18.0006C123.003 18.0006 123.788 17.1817 123.788 16.1774C123.788 15.1743 123.008 14.3657 121.977 14.3657ZM122.426 16.3844L122.998 17.1815H122.516L122 16.4503H121.557V17.1815H121.154V15.0687H122.101C122.594 15.0687 122.918 15.3198 122.918 15.7427C122.921 16.0891 122.719 16.3007 122.428 16.3844L122.426 16.3844ZM122.084 15.4312H121.557V16.0995H122.084C122.347 16.0995 122.504 15.9715 122.504 15.765C122.504 15.5476 122.346 15.4312 122.084 15.4312Z" fill="white"/>
</svg>
